<svg width="40" height="40" viewBox="0 0 40 40" fill="none" xmlns="http://www.w3.org/2000/svg">
<g clip-path="url(#clip0_36_985)">
<path fill-rule="evenodd" clip-rule="evenodd" d="M21.645 9.56669C22.2854 9.20344 22.7875 8.63839 23.073 7.95974C23.3584 7.28108 23.4112 6.52701 23.223 5.81523C23.0348 5.10345 22.6162 4.474 22.0326 4.02513C21.449 3.57626 20.7332 3.33324 19.997 3.33399C19.2607 3.33473 18.5455 3.57921 17.9628 4.02926C17.3801 4.47931 16.9628 5.10961 16.7761 5.82178C16.5893 6.53394 16.6436 7.2879 16.9304 7.96597C17.2173 8.64404 17.7205 9.20807 18.3616 9.57002L18.345 9.60002C17.2533 11.8784 15.7366 15.1417 13.395 16.3667C11.4716 17.3717 8.71165 16.8667 6.66165 16.49C6.62876 16.0239 6.46588 15.5763 6.19149 15.198C5.9171 14.8197 5.54218 14.526 5.10927 14.35C4.67637 14.174 4.2028 14.1229 3.74232 14.2024C3.28183 14.282 2.85285 14.489 2.50406 14.8C2.15527 15.111 1.90063 15.5135 1.76903 15.9619C1.63743 16.4103 1.63414 16.8866 1.75953 17.3368C1.88492 17.7869 2.13398 18.193 2.47844 18.5087C2.8229 18.8245 3.24897 19.0375 3.70832 19.1234L8.62165 31.8067C8.98602 32.747 9.6262 33.5551 10.4581 34.125C11.2901 34.6949 12.2749 34.9999 13.2833 35H26.7167C27.7251 34.9999 28.7099 34.6949 29.5418 34.125C30.3738 33.5551 31.0139 32.747 31.3783 31.8067L36.29 19.1234C36.7464 19.0384 37.1702 18.828 37.5138 18.5158C37.8574 18.2036 38.1073 17.8018 38.2355 17.3555C38.3636 16.9093 38.3649 16.4362 38.2393 15.9892C38.1137 15.5422 37.8661 15.1391 37.5243 14.8249C37.1824 14.5107 36.7599 14.2979 36.3039 14.2104C35.8479 14.1229 35.3766 14.164 34.9427 14.3293C34.5088 14.4945 34.1296 14.7774 33.8474 15.146C33.5652 15.5147 33.3912 15.9547 33.345 16.4167C31.2466 16.6884 28.5417 17.035 26.605 16.0234C24.31 14.8234 22.7717 11.785 21.645 9.56669ZM20.0416 13.5117C21.3216 15.5884 22.8566 17.8234 25.0616 18.9784C27.2733 20.1334 29.995 20.075 32.4283 19.8667L28.27 30.6017C28.1486 30.9151 27.9354 31.1846 27.6582 31.3746C27.381 31.5647 27.0528 31.6665 26.7167 31.6667H13.2833C12.9472 31.6665 12.619 31.5647 12.3418 31.3746C12.0646 31.1846 11.8513 30.9151 11.73 30.6017L7.62832 20.0134C10.0266 20.32 12.74 20.47 14.9383 19.32C17.235 18.12 18.7716 15.7 20.0416 13.5117Z" fill="white"/>
</g>
<defs>
<clipPath id="clip0_36_985">
<rect width="40" height="40" fill="white"/>
</clipPath>
</defs>
</svg>
