<svg width="40" height="40" viewBox="0 0 40 40" fill="none" xmlns="http://www.w3.org/2000/svg">
<path d="M27.7086 35.1564H19.3492C19.1294 35.1552 18.9144 35.0922 18.7288 34.9746C18.5431 34.857 18.3942 34.6896 18.2991 34.4915C18.2041 34.2934 18.1666 34.0725 18.1911 33.8541C18.2155 33.6357 18.3009 33.4286 18.4375 33.2564C18.8051 32.7945 19.0041 32.2209 19.0015 31.6306C18.9897 30.9425 18.708 30.2867 18.2172 29.8043C17.7265 29.3219 17.0659 29.0516 16.3777 29.0516C15.6896 29.0516 15.029 29.3219 14.5382 29.8043C14.0474 30.2867 13.7658 30.9425 13.7539 31.6306C13.7513 32.2209 13.9503 32.7945 14.3179 33.2564C14.455 33.4292 14.5405 33.6372 14.5646 33.8564C14.5887 34.0756 14.5504 34.2972 14.4542 34.4957C14.358 34.6942 14.2077 34.8615 14.0207 34.9783C13.8336 35.0952 13.6174 35.1569 13.3969 35.1564H5.03748C4.72668 35.1564 4.4286 35.0329 4.20883 34.8131C3.98907 34.5934 3.8656 34.2953 3.8656 33.9845V23.2079C3.8656 22.9903 3.9262 22.777 4.04062 22.5918C4.15503 22.4067 4.31874 22.2571 4.5134 22.1598C4.70805 22.0624 4.92597 22.0212 5.14272 22.0408C5.35947 22.0603 5.5665 22.1399 5.7406 22.2704C6.13036 22.5634 6.59403 22.742 7.07961 22.7862C7.5652 22.8304 8.05349 22.7384 8.48973 22.5206C8.92596 22.3028 9.29288 21.9677 9.54934 21.553C9.80579 21.1383 9.94164 20.6604 9.94164 20.1728C9.94164 19.6852 9.80579 19.2072 9.54934 18.7925C9.29288 18.3778 8.92596 18.0428 8.48973 17.825C8.05349 17.6071 7.5652 17.5152 7.07961 17.5594C6.59403 17.6035 6.13036 17.7821 5.7406 18.0751C5.5665 18.2057 5.35947 18.2852 5.14272 18.3048C4.92597 18.3243 4.70805 18.2831 4.5134 18.1858C4.31874 18.0885 4.15503 17.9388 4.04062 17.7537C3.9262 17.5686 3.8656 17.3553 3.8656 17.1376V11.3173C3.8656 11.0065 3.98907 10.7084 4.20883 10.4887C4.4286 10.2689 4.72668 10.1454 5.03748 10.1454H11.6125C11.3903 9.4037 11.3445 8.62028 11.4788 7.85771C11.6132 7.09515 11.9239 6.37454 12.3862 5.7534C12.8486 5.13226 13.4497 4.62779 14.1416 4.28025C14.8336 3.9327 15.5971 3.75171 16.3715 3.75171C17.1458 3.75171 17.9094 3.9327 18.6013 4.28025C19.2932 4.62779 19.8943 5.13226 20.3567 5.7534C20.819 6.37454 21.1297 7.09515 21.2641 7.85771C21.3984 8.62028 21.3527 9.4037 21.1304 10.1454H27.7054C28.0162 10.1454 28.3143 10.2689 28.5341 10.4887C28.7539 10.7084 28.8773 11.0065 28.8773 11.3173V15.3947C29.6163 15.1852 30.3937 15.15 31.1486 15.2917C31.9035 15.4334 32.6152 15.7482 33.2279 16.2113C33.8406 16.6745 34.3376 17.2734 34.6798 17.961C35.0219 18.6487 35.2 19.4063 35.2 20.1743C35.2 20.9424 35.0219 21.7 34.6798 22.3876C34.3376 23.0753 33.8406 23.6742 33.2279 24.1374C32.6152 24.6005 31.9035 24.9153 31.1486 25.057C30.3937 25.1987 29.6163 25.1635 28.8773 24.954V33.9845C28.8773 34.2948 28.7543 34.5924 28.5352 34.812C28.3161 35.0317 28.0188 35.1555 27.7086 35.1564ZM21.1992 32.8126H26.5367V23.0064C26.5367 22.7802 26.6022 22.5588 26.7252 22.3689C26.8483 22.1791 27.0237 22.029 27.2302 21.9366C27.4367 21.8443 27.6655 21.8137 27.889 21.8485C28.1125 21.8833 28.3212 21.9821 28.4898 22.1329C28.8677 22.4699 29.3349 22.6903 29.8352 22.7677C30.3355 22.8451 30.8475 22.7761 31.3095 22.5691C31.7715 22.3621 32.1637 22.0259 32.4389 21.6009C32.7142 21.176 32.8606 20.6806 32.8606 20.1743C32.8606 19.6681 32.7142 19.1726 32.4389 18.7477C32.1637 18.3228 31.7715 17.9866 31.3095 17.7796C30.8475 17.5725 30.3355 17.5036 29.8352 17.581C29.3349 17.6584 28.8677 17.8788 28.4898 18.2157C28.3212 18.3666 28.1125 18.4653 27.889 18.5002C27.6655 18.535 27.4367 18.5044 27.2302 18.4121C27.0237 18.3197 26.8483 18.1696 26.7252 17.9797C26.6022 17.7899 26.5367 17.5685 26.5367 17.3423V12.4892H19.1406C18.912 12.4891 18.6883 12.4222 18.4973 12.2967C18.3062 12.1711 18.156 11.9924 18.0652 11.7825C17.9745 11.5727 17.9471 11.3409 17.9864 11.1156C18.0258 10.8904 18.1302 10.6816 18.2867 10.515C18.6379 10.142 18.8722 9.67437 18.9608 9.16978C19.0494 8.66519 18.9884 8.14571 18.7852 7.67541C18.5821 7.2051 18.2457 6.80454 17.8176 6.52313C17.3896 6.24172 16.8885 6.09177 16.3761 6.09177C15.8638 6.09177 15.3627 6.24172 14.9347 6.52313C14.5066 6.80454 14.1702 7.2051 13.9671 7.67541C13.7639 8.14571 13.7029 8.66519 13.7915 9.16978C13.8801 9.67437 14.1144 10.142 14.4656 10.515C14.6221 10.6816 14.7265 10.8904 14.7659 11.1156C14.8052 11.3409 14.7778 11.5727 14.687 11.7825C14.5963 11.9924 14.4461 12.1711 14.255 12.2967C14.064 12.4222 13.8403 12.4891 13.6117 12.4892H6.21248V15.3298C6.57655 15.2477 6.94863 15.2063 7.32185 15.2064C8.0209 15.2071 8.71191 15.3554 9.34973 15.6415C9.98754 15.9276 10.5578 16.3451 11.0232 16.8667C11.4886 17.3883 11.8388 18.0022 12.0507 18.6683C12.2626 19.3345 12.3315 20.0379 12.253 20.7325C12.1744 21.4271 11.9502 22.0973 11.5949 22.6994C11.2396 23.3014 10.7612 23.8216 10.1911 24.2261C9.62099 24.6306 8.97191 24.9102 8.28631 25.0467C7.60072 25.1832 6.89404 25.1734 6.21248 25.0181V32.8126H11.55C11.3703 32.0811 11.3594 31.3184 11.5179 30.582C11.6765 29.8457 12.0004 29.155 12.4652 28.5623C12.93 27.9696 13.5234 27.4903 14.2007 27.1607C14.878 26.8311 15.6214 26.6598 16.3746 26.6598C17.1278 26.6598 17.8712 26.8311 18.5485 27.1607C19.2257 27.4903 19.8192 27.9696 20.284 28.5623C20.7488 29.155 21.0727 29.8457 21.2312 30.582C21.3898 31.3184 21.3788 32.0811 21.1992 32.8126Z" fill="white"/>
</svg>
