<svg width="40" height="40" viewBox="0 0 40 40" fill="none" xmlns="http://www.w3.org/2000/svg">
<path d="M5.625 11.875V30.625C5.625 30.9688 5.90625 31.25 6.25 31.25H16.6187L17.6875 32.3187C17.8062 32.4375 17.9625 32.5 18.1313 32.5H21.8812C22.05 32.5 22.2063 32.4312 22.325 32.3187L23.3937 31.25H33.7625C34.1063 31.25 34.3875 30.9688 34.3875 30.625V11.875C34.3875 11.5312 34.1063 11.25 33.7625 11.25H31.8875V10C31.8875 9.73125 31.7125 9.49375 31.4625 9.40625L28.1375 8.3V8.125C28.1375 7.78125 27.8563 7.5 27.5125 7.5C24.1375 7.5 21.2375 9.56875 20.0125 12.5C18.7875 9.56875 15.8875 7.5 12.5125 7.5C12.1688 7.5 11.8875 7.78125 11.8875 8.125V8.3L8.5625 9.40625C8.30625 9.49375 8.1375 9.73125 8.1375 10V11.25H6.2625C5.91875 11.25 5.6375 11.5312 5.6375 11.875H5.625ZM31.6375 27.3688C31.7875 27.25 31.875 27.0688 31.875 26.875V12.5H33.125V30H23.125C22.9562 30 22.8 30.0688 22.6813 30.1813L21.6125 31.25H21.1C24.6187 25.9813 30.8188 27.4125 31.0938 27.4813C31.2812 27.525 31.475 27.4812 31.6313 27.3625L31.6375 27.3688ZM28.125 24.375V9.61875L30.625 10.45V26.1375C28.8563 25.9062 24.4312 25.75 21.1938 29.1375C22.2563 26.7062 24.6812 25 27.5 25C27.8438 25 28.125 24.7188 28.125 24.375ZM20.625 15.625C20.625 12.0437 23.375 9.09375 26.875 8.775V23.7687C24.2437 23.9688 21.9625 25.4313 20.625 27.55V15.625ZM13.125 8.775C16.625 9.09375 19.375 12.0437 19.375 15.625V27.5562C18.0375 25.4375 15.7563 23.975 13.125 23.775V8.775ZM9.375 10.45L11.875 9.61875V24.375C11.875 24.7188 12.1562 25 12.5 25C15.3188 25 17.7437 26.7062 18.8062 29.1375C15.5688 25.75 11.1438 25.9062 9.375 26.1375V10.45ZM6.875 12.5H8.125V26.875C8.125 27.0688 8.2125 27.25 8.3625 27.3688C8.5125 27.4875 8.7125 27.5312 8.9 27.4813C8.96875 27.4625 15.3438 25.9688 18.8937 31.25H18.3813L17.3125 30.1813C17.1938 30.0625 17.0375 30 16.8687 30H6.875V12.5Z" fill="white"/>
</svg>
