<svg width="40" height="40" viewBox="0 0 40 40" fill="none" xmlns="http://www.w3.org/2000/svg">
<g clip-path="url(#clip0_38_1045)">
<path d="M20 0C8.97067 0 0 8.97067 0 20C0 31.0293 8.97067 40 20 40C31.0293 40 40 31.0293 40 20C40 8.97067 31.0293 0 20 0ZM20 37.3333C10.4427 37.3333 2.66667 29.5573 2.66667 20C2.66667 10.4427 10.4427 2.66667 20 2.66667C29.5573 2.66667 37.3333 10.4427 37.3333 20C37.3333 29.5573 29.5573 37.3333 20 37.3333Z" fill="#522F2C"/>
<path d="M8.03198 31.968L24.7866 24.7866L31.968 8.03198L15.2133 15.2133L8.03198 31.968ZM16.68 18.5653L21.4373 23.3226L13.112 26.8906L16.68 18.5653ZM23.32 21.4346L18.5653 16.68L26.8906 13.112L23.32 21.4346Z" fill="#522F2C"/>
</g>
<defs>
<clipPath id="clip0_38_1045">
<rect width="40" height="40" fill="white"/>
</clipPath>
</defs>
</svg>
