<svg width="40" height="40" viewBox="0 0 40 40" fill="none" xmlns="http://www.w3.org/2000/svg">
<g clip-path="url(#clip0_38_1033)">
<path fill-rule="evenodd" clip-rule="evenodd" d="M19.8462 10.3846C17.8462 10.3846 0.307739 10.2308 0.307739 5.38464C0.307739 0.53849 17.8462 0.384644 19.8462 0.384644C21.8462 0.384644 39.3847 0.53849 39.3847 5.38464C39.3847 10.2308 21.8462 10.3846 19.8462 10.3846ZM2.69235 5.38464C3.61543 6.38464 9.76928 8.07695 19.8462 8.07695C29.9231 8.07695 36.1539 6.38464 37 5.38464C36.077 4.38464 29.9231 2.69234 19.8462 2.69234C9.76928 2.69234 3.53851 4.30772 2.69235 5.38464Z" fill="#522F2C"/>
<path d="M39.3847 5.38464H37.077V34.1539H39.3847V5.38464Z" fill="#522F2C"/>
<path d="M2.61543 5.38464H0.307739V34.1539H2.61543V5.38464Z" fill="#522F2C"/>
<path fill-rule="evenodd" clip-rule="evenodd" d="M19.8462 20.4616C15.2308 20.4616 0.307739 20.077 0.307739 14.8462H2.61543C2.61543 16.2308 9.15389 18.1539 19.8462 18.1539C30.5385 18.1539 37.077 16.2308 37.077 14.8462H39.3847C39.3847 20.077 24.3847 20.4616 19.8462 20.4616Z" fill="#522F2C"/>
<path fill-rule="evenodd" clip-rule="evenodd" d="M19.8462 30.0769C15.2308 30.0769 0.307739 29.6923 0.307739 24.4615H2.61543C2.61543 25.8462 9.15389 27.7692 19.8462 27.7692C30.5385 27.7692 37.077 25.8462 37.077 24.4615H39.3847C39.3847 29.6154 24.3847 30.0769 19.8462 30.0769Z" fill="#522F2C"/>
<path fill-rule="evenodd" clip-rule="evenodd" d="M19.8462 39.6154C15.2308 39.6154 0.307739 39.2308 0.307739 34H2.61543C2.61543 35.3846 9.15389 37.3077 19.8462 37.3077C30.5385 37.3077 37.077 35.3846 37.077 34H39.3847C39.3847 39.1538 24.4616 39.6154 19.8462 39.6154Z" fill="#522F2C"/>
</g>
<defs>
<clipPath id="clip0_38_1033">
<rect width="40" height="40" fill="white"/>
</clipPath>
</defs>
</svg>
