<svg width="36" height="29" viewBox="0 0 36 29" fill="none" xmlns="http://www.w3.org/2000/svg">
<path d="M4.57344 11.1435L7.17596 26.8403C7.22263 27.0779 7.22138 27.3225 7.17227 27.5596C7.12316 27.7967 7.0272 28.0214 6.89007 28.2206C6.75295 28.4197 6.57745 28.5891 6.37398 28.7188C6.17051 28.8485 5.94321 28.9357 5.70555 28.9755C5.4679 29.0152 5.22473 29.0066 4.99045 28.9501C4.75618 28.8936 4.53557 28.7904 4.34171 28.6466C4.14784 28.5029 3.98467 28.3214 3.86185 28.1131C3.73904 27.9047 3.65909 27.6737 3.62674 27.4337L0.0271238 5.72303C-0.268045 3.94818 1.91692 2.87712 3.12819 4.20328L11.1607 13.0106L16.3514 1.08418C16.9813 -0.361392 19.0205 -0.361392 19.6486 1.08418L24.8411 13.0124L32.8718 4.20509C34.0813 2.87893 36.2681 3.94999 35.9729 5.72484L32.3733 27.4355C32.303 27.8576 32.0862 28.2411 31.7613 28.5177C31.4364 28.7942 31.0244 28.9461 30.5987 28.9462H12.6006C12.1232 28.9462 11.6655 28.7556 11.3279 28.4163C10.9904 28.077 10.8008 27.6168 10.8008 27.137C10.8008 26.6572 10.9904 26.197 11.3279 25.8577C11.6655 25.5184 12.1232 25.3278 12.6006 25.3278H29.0742L31.4248 11.1435L25.6258 17.5047C25.4233 17.7266 25.169 17.8941 24.8858 17.9922C24.6026 18.0903 24.2996 18.1158 24.0041 18.0664C23.7087 18.017 23.4302 17.8942 23.1938 17.7093C22.9575 17.5243 22.7708 17.283 22.6507 17.0072L18 6.32188L13.3493 17.0053C13.2292 17.2812 13.0425 17.5225 12.8062 17.7074C12.5699 17.8924 12.2913 18.0152 11.9959 18.0646C11.7004 18.114 11.3974 18.0885 11.1142 17.9904C10.831 17.8923 10.5767 17.7248 10.3742 17.5029L4.57344 11.1435Z" fill="white"/>
</svg>
