<svg width="70" height="70" viewBox="0 0 70 70" fill="none" xmlns="http://www.w3.org/2000/svg">
<path d="M11.3613 51.2285C12.7285 50.0117 16.0234 47.4414 26.2363 42.7793C26.3184 42.7383 26.3867 42.7109 26.4688 42.6699L28.6426 41.6992C28.7109 41.6719 28.793 41.6309 28.8613 41.6035V44.3789L29.3809 48.8906C31.8555 48.1797 35.0273 47.4277 35.0273 47.4277L40.5508 49.3281L41.125 44.3789V41.6172C41.3164 41.6992 41.5215 41.7949 41.7129 41.877L42.1914 42.0957C42.9434 42.4238 43.6543 42.752 44.3379 43.0664C54.1816 47.5918 57.2852 50.0391 58.625 51.2422C59.0898 51.6523 59.5137 52.2949 59.8965 53.1016C62.7949 48.5352 64.4766 43.1211 64.4766 37.3105C64.4902 21 51.2832 7.79297 35 7.79297C18.7168 7.79297 5.50977 21 5.50977 37.2969C5.50977 43.1074 7.19141 48.5215 10.0898 53.0879C10.4727 52.2812 10.8965 51.6387 11.3613 51.2285Z" fill="#746764"/>
<path d="M35.0273 47.4277C35.0273 47.4277 31.8691 48.1797 29.3809 48.8906L31.4316 66.582C31.5684 66.5957 31.6914 66.6094 31.8281 66.623L33.8379 52.5684H36.1484L38.1582 66.623C38.2813 66.6094 38.4043 66.5957 38.5273 66.582L40.5508 49.3281L35.0273 47.4277Z" fill="white"/>
<path d="M29.3945 48.8906C31.8691 48.1797 35.041 47.4277 35.041 47.4277L40.5645 49.3281L41.1387 44.3789V41.6172C41.043 41.5762 40.9473 41.5352 40.8516 41.4941L29.2852 41.4121C29.1484 41.4805 29.0117 41.5352 28.8613 41.6035V44.3789L29.3945 48.8906Z" fill="#474648"/>
<path d="M28.8613 30.3789V39.7578V44.3789C30.543 46.375 32.7715 47.4004 35 47.4277V24.7051C31.9375 24.7051 28.8613 26.5918 28.8613 30.3789Z" fill="#DCC5A1"/>
<path d="M35 24.7051V47.4277C37.2285 47.4414 39.4434 46.4434 41.1387 44.3789V39.7578V30.3789C41.1387 26.5918 38.0625 24.7051 35 24.7051Z" fill="#EDD9B4"/>
<path d="M28.8613 37.1602V37.5977C28.8613 37.5977 31.9922 41.3164 34.9863 41.4531C37.9805 41.5898 41.125 37.8574 41.125 37.8574V37.1738" fill="#BC9F82"/>
<path fill-rule="evenodd" clip-rule="evenodd" d="M22.2578 21.5605C22.2441 21.5605 22.2304 21.5605 22.2168 21.5742C21.1367 21.9297 20.7539 23.7344 21.3691 25.5938C21.7383 26.7285 22.4082 27.6309 23.1054 28.082C23.6523 30.6797 24.3086 32.5801 24.6094 33.0586C25.9629 35.2461 31.9648 40.0586 35.0137 40.0586V5.23633C24.0898 5.23633 21.916 13.8906 22.2578 21.5605Z" fill="#DCC5A1"/>
<path fill-rule="evenodd" clip-rule="evenodd" d="M47.7695 21.5879C48.1113 13.9043 45.9375 5.23633 35.0137 5.23633V40.0586C38.0625 40.0586 44.0645 35.2461 45.418 33.0586C45.7188 32.5664 46.3887 30.6523 46.9355 28.0137C47.6055 27.5488 48.2207 26.6738 48.5762 25.5938C49.1914 23.748 48.8223 21.9707 47.7695 21.5879Z" fill="#EDD9B4"/>
<path d="M43.4767 5.83787C37.1056 0.820295 27.2618 3.81444 24.2951 7.99803C20.5763 13.2344 21.8888 21.164 22.7775 27.1387V27.1113C22.7911 27.166 22.8048 27.2344 22.8185 27.3027C22.8322 27.3574 22.9415 27.4941 22.9552 27.5215C22.9826 27.5762 23.215 27.5215 23.297 27.4805C23.3243 27.4668 23.338 27.4258 23.338 27.3984C23.379 26.8652 23.338 25.8262 23.338 25.8125C23.2697 24.9922 23.0919 24.1992 22.9689 23.3926C23.5704 19.6328 25.3341 18.8398 26.2501 14.3008C26.4415 14 26.6603 13.6992 26.879 13.4121C27.1388 13.084 27.3986 12.7695 27.6994 12.4824C27.8634 12.3867 28.0138 12.2773 28.1642 12.168C31.5958 10.9101 35.1369 12.414 38.3634 13.7402C39.6076 14.2461 40.9884 14.8476 42.3556 14.7383C42.9435 14.6972 43.381 14.3144 43.4357 13.8222C44.9806 18.4707 46.2658 20.6172 47.0177 24.0215C46.9083 24.6094 46.799 25.1973 46.7579 25.8125C46.7579 25.8262 46.7306 26.8652 46.7579 27.3984C46.7579 27.4258 46.7716 27.4668 46.799 27.4805C46.881 27.5215 47.0997 27.5762 47.1408 27.5215C47.1544 27.4805 47.2638 27.3437 47.2775 27.3027C47.3322 27.0703 47.3458 26.8789 47.3595 26.6601C47.4005 26.3594 47.4552 26.0449 47.4962 25.7168C48.4533 22.0254 50.2716 7.42381 43.4767 5.83787ZM33.8107 10.7597C33.7013 10.7324 33.6056 10.6914 33.4962 10.664C33.6603 10.7051 33.8107 10.7461 33.9747 10.7871C33.9201 10.7871 33.8654 10.7734 33.8107 10.7597Z" fill="#231F20"/>
<g opacity="0.1">
<mask id="mask0_82_467" style="mask-type:luminance" maskUnits="userSpaceOnUse" x="33" y="52" width="4" height="1">
<path d="M36.1621 52.5684H33.8379V52.6504H36.1621V52.5684Z" fill="white"/>
</mask>
<g mask="url(#mask0_82_467)">
<path fill-rule="evenodd" clip-rule="evenodd" d="M33.8516 52.5684H36.1484L36.1621 52.6367H33.8379L33.8516 52.5684Z" fill="#010101"/>
</g>
</g>
<path d="M28.6973 20.9316C29.5449 20.9316 30.2422 21.7109 30.2422 22.6816C30.2422 23.6523 29.5449 24.4316 28.6973 24.4316C27.8496 24.4316 27.1523 23.6387 27.1523 22.6816C27.1523 21.7109 27.8359 20.9316 28.6973 20.9316Z" fill="#342214"/>
<path d="M41.248 20.9316C42.0957 20.9316 42.793 21.7109 42.793 22.6816C42.793 23.6523 42.0957 24.4316 41.248 24.4316C40.4004 24.4316 39.7031 23.6387 39.7031 22.6816C39.7031 21.7109 40.4004 20.9316 41.248 20.9316Z" fill="#342214"/>
<path d="M31.7871 32.0332C32.334 33.25 33.5645 34.0977 34.9727 34.0977C36.3945 34.0977 37.6113 33.25 38.1719 32.0332H31.7871Z" fill="white"/>
<path d="M41.7129 41.877L42.1914 42.0957C42.041 42.0137 41.877 41.9453 41.7129 41.877Z" fill="#474648"/>
<path d="M26.4688 42.6699L28.6426 41.6992C27.8906 42.0273 27.166 42.3555 26.4688 42.6699Z" fill="#474648"/>
<path d="M28.8613 41.6035L28.6426 41.6992C28.7246 41.6719 28.793 41.6309 28.8613 41.6035Z" fill="#231F20"/>
<path d="M26.25 42.7793C26.3184 42.752 26.4004 42.7109 26.4824 42.6836L26.25 42.7793Z" fill="#231F20"/>
<path d="M41.1387 41.6172C41.3301 41.6992 41.5352 41.7949 41.7266 41.877L41.1387 41.6172Z" fill="#231F20"/>
<path d="M44.3242 43.0391L42.1914 42.0957C42.9434 42.4238 43.6543 42.752 44.3379 43.0664L44.3242 43.0391Z" fill="#231F20"/>
<path d="M25.9766 65.3789L21.9023 57.1211L26.7148 53.9082L20.8359 51.1602L26.2363 42.7656C16.0234 47.4277 12.7285 50.0117 11.3613 51.2148C10.8965 51.625 10.4727 52.2676 10.0898 53.0742C13.7539 58.8438 19.3457 63.2461 25.9766 65.3789Z" fill="#474648"/>
<path d="M58.6387 51.2285C57.2852 50.0391 54.1953 47.5781 44.3516 43.0527L49.1367 51.1602L43.2578 53.9082L48.0703 57.1211L43.9961 65.3926C50.627 63.2734 56.2461 58.8574 59.9102 53.0879C59.5273 52.2812 59.1035 51.6387 58.6387 51.2285Z" fill="#474648"/>
<path d="M28.8613 44.3789V41.6035C28.793 41.6309 28.7109 41.6719 28.6426 41.6992L26.4688 42.6699C26.3867 42.7109 26.3184 42.7383 26.2363 42.7793L20.8359 51.1738L26.7148 53.9219L21.9023 57.1348L25.9766 65.3926C27.7266 65.9531 29.5586 66.3633 31.4453 66.582L29.3945 48.8906L28.8613 44.3789Z" fill="#231F20"/>
<path d="M43.2578 53.9082L49.1367 51.1602L44.3516 43.0527C43.668 42.7383 42.957 42.4102 42.2051 42.082L41.7266 41.8633C41.5352 41.7813 41.3438 41.6855 41.1387 41.6035V44.3652L40.5645 49.3145L38.541 66.582C40.4141 66.3633 42.2461 65.9531 43.9961 65.3926L48.0703 57.1211L43.2578 53.9082Z" fill="#231F20"/>
<path d="M36.1484 52.5684L37.6797 50.2031L35.041 47.4277L32.293 50.2031L33.8516 52.5684L31.8418 66.623C32.8809 66.7324 33.9336 66.7871 35 66.7871C36.0664 66.7871 37.1191 66.7324 38.1582 66.623L36.1484 52.5684Z" fill="#30A7DF"/>
<path fill-rule="evenodd" clip-rule="evenodd" d="M28.8613 39.7441L28.3281 41.8359L29.832 52.6914L35.0273 47.4277L28.8613 39.7441Z" fill="#E7E7E7"/>
<path fill-rule="evenodd" clip-rule="evenodd" d="M41.1387 39.7441L41.5625 41.8086L40.1406 52.8008L35.0273 47.4277L41.1387 39.7441Z" fill="#E7E7E7"/>
</svg>
