<svg width="40" height="40" viewBox="0 0 40 40" fill="none" xmlns="http://www.w3.org/2000/svg">
<g clip-path="url(#clip0_54_166)">
<path d="M12 22C15.8687 22 19 18.8687 19 15C19 11.1312 15.8687 8 12 8C8.13125 8 5 11.1312 5 15C5 18.8687 8.13125 22 12 22ZM16.8 24H16.2812C14.9812 24.625 13.5375 25 12 25C10.4625 25 9.025 24.625 7.71875 24H7.2C3.225 24 0 27.225 0 31.2V33C0 34.6562 1.34375 36 3 36H21C22.6562 36 24 34.6562 24 33V31.2C24 27.225 20.775 24 16.8 24ZM30 22C33.3125 22 36 19.3125 36 16C36 12.6875 33.3125 10 30 10C26.6875 10 24 12.6875 24 16C24 19.3125 26.6875 22 30 22ZM33 24H32.7625C31.8938 24.3 30.975 24.5 30 24.5C29.025 24.5 28.1062 24.3 27.2375 24H27C25.725 24 24.55 24.3687 23.5187 24.9625C25.0437 26.6062 26 28.7875 26 31.2V33.6C26 33.7375 25.9688 33.8687 25.9625 34H37C38.6562 34 40 32.6562 40 31C40 27.1313 36.8688 24 33 24Z" fill="white" stroke="white" stroke-width="1.25"/>
</g>
<defs>
<clipPath id="clip0_54_166">
<rect width="40" height="40" fill="white"/>
</clipPath>
</defs>
</svg>
