<svg width="70" height="70" viewBox="0 0 70 70" fill="none" xmlns="http://www.w3.org/2000/svg">
<path d="M12.2637 51.8438C13.4805 50.7637 16.2832 48.5625 24.4727 44.6797L30.4199 52.9238L32.498 50.9551L32.4707 50.9004L35.041 48.4941L37.5566 50.9004L37.543 50.9141L39.6484 52.9102L45.582 44.6934C53.8125 48.5762 56.5332 50.7363 57.7637 51.8301C58.3105 52.3086 58.7891 53.1016 59.2266 54.127C62.5625 49.3418 64.5176 43.5312 64.5176 37.2695C64.4902 21 51.2832 7.79297 35 7.79297C18.7168 7.79297 5.50977 21 5.50977 37.2969C5.50977 43.5723 7.46484 49.3828 10.8008 54.1543C11.2383 53.1289 11.7168 52.3223 12.2637 51.8438Z" fill="#94D9F8"/>
<path d="M35 26.3184V48.6445C37.1328 48.6582 39.2793 47.25 40.9063 45.2539V31.7734C40.9063 28.1367 37.9531 26.3184 35 26.3184Z" fill="#EDD9B4"/>
<path d="M29.0938 31.7871V45.2539C30.7207 47.168 32.8535 48.6309 35 48.6445V26.3184C32.0469 26.3184 29.0938 28.1367 29.0938 31.7871Z" fill="#DCC5A1"/>
<path fill-rule="evenodd" clip-rule="evenodd" d="M40.9063 31.7871V40.8105C38.6641 42.4238 36.5176 43.3398 35 43.3398C33.4824 43.3398 31.3359 42.4238 29.0938 40.7969V31.7734C29.0938 24.5 40.9063 24.5 40.9063 31.7871Z" fill="#BC9F82"/>
<path fill-rule="evenodd" clip-rule="evenodd" d="M44.8573 6.49414C47.7694 6.95899 49.369 8.95508 50.0663 11.6621C51.8573 18.7031 48.1112 33.9746 35.1229 34.166C28.4237 34.2617 23.5975 32.5527 21.8475 27.1387C20.0839 21.7246 19.3729 12.9883 23.1874 8.08008C27.9862 1.91407 38.0761 1.85938 44.8573 6.49414Z" fill="#8B5E3C"/>
<path fill-rule="evenodd" clip-rule="evenodd" d="M21.3147 21.123C20.8088 20.7129 20.2619 20.5352 19.7697 20.6992C18.7307 21.041 18.3615 22.7773 18.9631 24.5684C19.5373 26.291 20.7678 27.4395 21.7932 27.2344C22.3537 30.4199 23.2287 32.8672 23.6115 33.4277C25.0334 35.5332 31.801 41.0977 35.0002 41.0977V7.58789C24.3908 7.58789 21.5061 14.4512 21.3147 21.123Z" fill="#DCC5A1"/>
<path fill-rule="evenodd" clip-rule="evenodd" d="M50.1758 20.6992C49.7109 20.5488 49.1777 20.6992 48.6855 21.082C48.4805 14.4238 45.5957 7.58789 35 7.58789V41.0977C38.1992 41.0977 44.9668 35.5332 46.3887 33.4277C46.7715 32.8672 47.6465 30.4199 48.207 27.248C49.2188 27.4121 50.4219 26.2637 50.9824 24.5684C51.5703 22.7773 51.2148 21.041 50.1758 20.6992Z" fill="#EDD9B4"/>
<path d="M35.0273 48.5762L29.0938 42.5879C27.3848 43.3398 25.8535 44.0371 24.4727 44.6934L30.4199 52.9375L35.0273 48.5762Z" fill="white"/>
<path d="M39.6348 52.9375L45.5684 44.7207C44.1738 44.0645 42.6289 43.3535 40.9062 42.6016L35.0273 48.5762L39.6348 52.9375Z" fill="white"/>
<path d="M28.6016 21.9434C29.4629 21.9434 30.1738 22.7363 30.1738 23.7207C30.1738 24.7051 29.4766 25.498 28.6016 25.498C27.7402 25.498 27.0293 24.7051 27.0293 23.7207C27.0293 22.7363 27.7402 21.9434 28.6016 21.9434Z" fill="#342214"/>
<path d="M41.3438 21.9434C42.2051 21.9434 42.916 22.7363 42.916 23.7207C42.916 24.7051 42.2188 25.498 41.3438 25.498C40.4824 25.498 39.7715 24.7051 39.7715 23.7207C39.7715 22.7363 40.4824 21.9434 41.3438 21.9434Z" fill="#342214"/>
<path d="M31.7324 33.2227C32.293 34.4531 33.5234 35.3145 34.9727 35.3145C36.4219 35.3145 37.6523 34.4531 38.2129 33.2227H31.7324Z" fill="white"/>
<path fill-rule="evenodd" clip-rule="evenodd" d="M44.707 13.5488C41.2206 15.6953 37.0917 14.9434 38.6913 13.0566C40.3046 11.1836 38.5273 12.4824 35.3964 13.8633C32.2519 15.2305 28.6425 15.0117 30.7753 13.8496C33.373 12.4414 23.2284 11.5254 21.3827 26.0039C18.4159 15.5039 23.4335 6.69923 34.7675 6.20704C46.8808 5.67384 51.789 15.2578 48.4394 25.6895C48.6581 20.0293 47.2909 16.3379 44.707 13.5488Z" fill="#8B5E3C"/>
<path d="M36.1074 53.1289L38.0352 66.6367L36.1074 53.1289Z" fill="#BE1E2D"/>
<path d="M31.9648 66.6367L33.8926 53.1289L31.9648 66.6367Z" fill="#BE1E2D"/>
<path d="M57.7363 51.8438C56.5059 50.7637 53.7852 48.6035 45.5547 44.707L39.6211 52.9238L37.5156 50.9277L36.0938 53.1289L38.0215 66.623C42.5059 66.1582 46.7031 64.6953 50.3672 62.4531C50.3672 61.0176 50.3672 60.1426 50.3672 60.1426C50.3672 60.1426 50.4766 60.9492 50.6406 62.2754C54.0039 60.1699 56.9023 57.3945 59.1719 54.1406C58.7617 53.1289 58.2832 52.3223 57.7363 51.8438Z" fill="#00AEEF"/>
<path d="M19.332 62.2891C19.4961 60.9629 19.6055 60.1563 19.6055 60.1563C19.6055 60.1563 19.6055 61.0176 19.6055 62.4668C23.2695 64.709 27.4668 66.1855 31.9512 66.6367L33.8789 53.1426L32.4844 50.9824L30.4062 52.9512L24.4727 44.6934C16.2832 48.5762 13.4805 50.7773 12.2637 51.8574C11.7168 52.3359 11.2383 53.1426 10.8008 54.1543C13.0703 57.3945 15.9687 60.1699 19.332 62.2891Z" fill="#00AEEF"/>
<path d="M37.5293 50.9414L37.543 50.9141L35.0273 48.5078L32.457 50.9141L32.498 50.9688L35.0273 48.5762L37.5293 50.9414Z" fill="#EF3F6C"/>
<path d="M36.1074 53.1289L37.5293 50.9277L35.0273 48.5625L32.498 50.9687L33.8926 53.1289L31.9648 66.623C32.9629 66.7187 33.9746 66.7734 35 66.7734C36.0254 66.7734 37.0371 66.7187 38.0352 66.623L36.1074 53.1289Z" fill="#EF3F6C"/>
<path d="M19.332 62.2891C19.4277 62.3438 19.5234 62.4121 19.6191 62.4668C19.6191 61.0312 19.6191 60.1562 19.6191 60.1562C19.6191 60.1562 19.4961 60.9629 19.332 62.2891Z" fill="white"/>
<path d="M50.3809 62.4531C50.4766 62.3984 50.5723 62.3301 50.668 62.2754C50.5039 60.9492 50.3945 60.1426 50.3945 60.1426C50.3945 60.1426 50.3945 61.0176 50.3809 62.4531Z" fill="white"/>
</svg>
