<svg width="40" height="40" viewBox="0 0 40 40" fill="none" xmlns="http://www.w3.org/2000/svg">
<path d="M35.0002 18.2917V13.3334C35.0002 12.4493 34.649 11.6015 34.0239 10.9764C33.3987 10.3512 32.5509 10 31.6668 10H21.6668V7.81338C22.1752 7.35671 22.5002 6.70005 22.5002 5.96338C22.5002 5.30034 22.2368 4.66445 21.7679 4.19561C21.2991 3.72677 20.6632 3.46338 20.0002 3.46338C19.3371 3.46338 18.7012 3.72677 18.2324 4.19561C17.7636 4.66445 17.5002 5.30034 17.5002 5.96338C17.5002 6.70005 17.8252 7.35671 18.3335 7.81338V10H8.3335C7.44944 10 6.60159 10.3512 5.97647 10.9764C5.35135 11.6015 5.00016 12.4493 5.00016 13.3334V18.33L4.88016 18.3384C4.45998 18.3683 4.06676 18.5564 3.77975 18.8648C3.49274 19.1731 3.33327 19.5788 3.3335 20V23.3334C3.3335 23.7754 3.50909 24.1993 3.82165 24.5119C4.13421 24.8244 4.55814 25 5.00016 25V33.3334C5.00016 34.2174 5.35135 35.0653 5.97647 35.6904C6.60159 36.3155 7.44944 36.6667 8.3335 36.6667H31.6668C32.5509 36.6667 33.3987 36.3155 34.0239 35.6904C34.649 35.0653 35.0002 34.2174 35.0002 33.3334V25C35.4422 25 35.8661 24.8244 36.1787 24.5119C36.4912 24.1993 36.6668 23.7754 36.6668 23.3334V20.1034C36.6861 19.8447 36.6451 19.5851 36.5468 19.345C36.2102 18.5317 35.4885 18.3367 35.0002 18.2917ZM11.6668 20C11.6668 18.16 12.7868 16.6667 14.1668 16.6667C15.5468 16.6667 16.6668 18.16 16.6668 20C16.6668 21.84 15.5468 23.3334 14.1668 23.3334C12.7868 23.3334 11.6668 21.84 11.6668 20ZM26.6635 30C24.9952 29.995 13.3335 30 13.3335 30V26.6667C13.3335 26.6667 25.0018 26.6634 26.6702 26.6667L26.6635 30ZM25.8335 23.3334C24.4535 23.3334 23.3335 21.84 23.3335 20C23.3335 18.16 24.4535 16.6667 25.8335 16.6667C27.2135 16.6667 28.3335 18.16 28.3335 20C28.3335 21.84 27.2135 23.3334 25.8335 23.3334Z" fill="white"/>
</svg>
