<svg width="40" height="40" viewBox="0 0 40 40" fill="none" xmlns="http://www.w3.org/2000/svg">
<path d="M28.0515 26.0669C29.1682 25.3336 30.6348 26.1336 30.6348 27.4669V29.6169C30.6348 31.7336 28.9848 34.0003 27.0015 34.6669L21.6848 36.4336C20.7515 36.7503 19.2348 36.7503 18.3182 36.4336L13.0015 34.6669C11.0015 34.0003 9.36816 31.7336 9.36816 29.6169V27.4503C9.36816 26.1336 10.8348 25.3336 11.9348 26.0503L15.3682 28.2836C16.6848 29.1669 18.3515 29.6003 20.0182 29.6003C21.6848 29.6003 23.3515 29.1669 24.6682 28.2836L28.0515 26.0669Z" fill="white"/>
<path d="M33.299 10.7643L23.3157 4.21428C21.5157 3.03095 18.549 3.03095 16.749 4.21428L6.71572 10.7643C3.49906 12.8476 3.49906 17.5643 6.71572 19.6643L9.38239 21.3976L16.749 26.1976C18.549 27.381 21.5157 27.381 23.3157 26.1976L30.6323 21.3976L32.9157 19.8976V24.9976C32.9157 25.681 33.4823 26.2476 34.1657 26.2476C34.849 26.2476 35.4157 25.681 35.4157 24.9976V16.7976C36.0823 14.6476 35.399 12.1476 33.299 10.7643Z" fill="white"/>
</svg>
