<svg width="28" height="28" viewBox="0 0 28 28" fill="none" xmlns="http://www.w3.org/2000/svg">
<g clip-path="url(#clip0_95_353)">
<path d="M23.1 24.5H4.9C4.515 24.5 4.2 24.8937 4.2 25.375V27.125C4.2 27.6063 4.515 28 4.9 28H23.1C23.485 28 23.8 27.6063 23.8 27.125V25.375C23.8 24.8937 23.485 24.5 23.1 24.5ZM25.9 7C24.7406 7 23.8 8.17578 23.8 9.625C23.8 10.0133 23.87 10.3742 23.9925 10.7078L20.825 13.0813C20.1512 13.5844 19.2806 13.3 18.8912 12.4469L15.3256 4.64844C15.7937 4.16719 16.1 3.44531 16.1 2.625C16.1 1.17578 15.1594 0 14 0C12.8406 0 11.9 1.17578 11.9 2.625C11.9 3.44531 12.2063 4.16719 12.6744 4.64844L9.10875 12.4469C8.71937 13.3 7.84437 13.5844 7.175 13.0813L4.01187 10.7078C4.13 10.3797 4.20437 10.0133 4.20437 9.625C4.20437 8.17578 3.26375 7 2.10437 7C0.945 7 0 8.17578 0 9.625C0 11.0742 0.940625 12.25 2.1 12.25C2.21375 12.25 2.3275 12.2281 2.43688 12.2063L5.6 22.75H22.4L25.5631 12.2063C25.6725 12.2281 25.7862 12.25 25.9 12.25C27.0594 12.25 28 11.0742 28 9.625C28 8.17578 27.0594 7 25.9 7Z" fill="#FFD000"/>
</g>
<defs>
<clipPath id="clip0_95_353">
<rect width="28" height="28" fill="white"/>
</clipPath>
</defs>
</svg>
