<svg width="42" height="42" viewBox="0 0 42 42" fill="none" xmlns="http://www.w3.org/2000/svg">
<path d="M0.323785 7.99863C0.367218 3.56849 3.97085 0 8.40121 0L32.9359 0C37.3971 0 41.0137 3.61656 41.0137 8.07781V32.9469C41.0137 37.4081 37.3971 41.0247 32.9359 41.0247H8.15739C3.66518 41.0247 0.0359314 37.3597 0.0799706 32.8677L0.323785 7.99863Z" fill="white"/>
<g clip-path="url(#clip0_34_978)">
<path d="M7.74145 9.55115L33.0802 9.55115C33.4536 9.55115 33.8116 9.71123 34.0756 9.99618C34.3396 10.2811 34.4879 10.6676 34.4879 11.0706V35.3815C34.4879 35.7845 34.3396 36.171 34.0756 36.4559C33.8116 36.7409 33.4536 36.9009 33.0802 36.9009H7.74145C7.3681 36.9009 7.01005 36.7409 6.74605 36.4559C6.48205 36.171 6.33374 35.7845 6.33374 35.3815L6.33374 11.0706C6.33374 10.6676 6.48205 10.2811 6.74605 9.99618C7.01005 9.71123 7.3681 9.55115 7.74145 9.55115ZM31.6725 15.9905L20.5122 26.7785L9.14916 15.9571L9.14916 33.8621H31.6725V15.9905ZM9.8685 12.59L20.4967 22.7125L30.9715 12.59L9.8685 12.59Z" fill="#522F2C"/>
</g>
<defs>
<clipPath id="clip0_34_978">
<rect width="19.4935" height="19.4935" fill="white" transform="translate(10.4573 13.6749)"/>
</clipPath>
</defs>
</svg>
