<svg width="40" height="40" viewBox="0 0 40 40" fill="none" xmlns="http://www.w3.org/2000/svg">
<g clip-path="url(#clip0_38_1052)">
<path fill-rule="evenodd" clip-rule="evenodd" d="M21.6451 9.56669C22.2855 9.20344 22.7876 8.63839 23.0731 7.95974C23.3585 7.28108 23.4113 6.52701 23.2231 5.81523C23.0349 5.10345 22.6163 4.474 22.0327 4.02513C21.4491 3.57626 20.7334 3.33324 19.9971 3.33399C19.2609 3.33473 18.5456 3.57921 17.9629 4.02926C17.3802 4.47931 16.9629 5.10961 16.7762 5.82178C16.5894 6.53394 16.6437 7.2879 16.9305 7.96597C17.2174 8.64404 17.7206 9.20807 18.3618 9.57002L18.3451 9.60002C17.2534 11.8784 15.7368 15.1417 13.3951 16.3667C11.4718 17.3717 8.71177 16.8667 6.66177 16.49C6.62889 16.0239 6.46601 15.5763 6.19162 15.198C5.91722 14.8197 5.5423 14.526 5.1094 14.35C4.67649 14.174 4.20293 14.1229 3.74244 14.2024C3.28195 14.282 2.85298 14.489 2.50419 14.8C2.15539 15.111 1.90075 15.5135 1.76915 15.9619C1.63755 16.4103 1.63426 16.8866 1.75965 17.3368C1.88504 17.7869 2.1341 18.193 2.47856 18.5087C2.82302 18.8245 3.24909 19.0375 3.70844 19.1234L8.62177 31.8067C8.98615 32.747 9.62632 33.5551 10.4583 34.125C11.2902 34.6949 12.275 34.9999 13.2834 35H26.7168C27.7252 34.9999 28.71 34.6949 29.5419 34.125C30.3739 33.5551 31.0141 32.747 31.3784 31.8067L36.2901 19.1234C36.7466 19.0384 37.1703 18.828 37.514 18.5158C37.8576 18.2036 38.1074 17.8018 38.2356 17.3555C38.3637 16.9093 38.3651 16.4362 38.2395 15.9892C38.1138 15.5422 37.8662 15.1391 37.5244 14.8249C37.1826 14.5107 36.76 14.2979 36.304 14.2104C35.8481 14.1229 35.3767 14.164 34.9428 14.3293C34.509 14.4945 34.1297 14.7774 33.8475 15.146C33.5653 15.5147 33.3913 15.9547 33.3451 16.4167C31.2468 16.6884 28.5418 17.035 26.6051 16.0234C24.3101 14.8234 22.7718 11.785 21.6451 9.56669ZM20.0418 13.5117C21.3218 15.5884 22.8568 17.8234 25.0618 18.9784C27.2734 20.1334 29.9951 20.075 32.4284 19.8667L28.2701 30.6017C28.1488 30.9151 27.9355 31.1846 27.6583 31.3746C27.3811 31.5647 27.0529 31.6665 26.7168 31.6667H13.2834C12.9473 31.6665 12.6191 31.5647 12.3419 31.3746C12.0647 31.1846 11.8514 30.9151 11.7301 30.6017L7.62844 20.0134C10.0268 20.32 12.7401 20.47 14.9384 19.32C17.2351 18.12 18.7718 15.7 20.0418 13.5117Z" fill="#522F2C"/>
</g>
<defs>
<clipPath id="clip0_38_1052">
<rect width="40" height="40" fill="white"/>
</clipPath>
</defs>
</svg>
