<svg width="70" height="70" viewBox="0 0 70 70" fill="none" xmlns="http://www.w3.org/2000/svg">
<path d="M51.0508 59.7734C51.0508 59.7734 51.1602 60.5664 51.3242 61.8652C54.8105 59.5547 57.7637 56.5195 59.9922 52.9785C59.5957 52.1719 59.1855 51.5293 58.7207 51.1191C57.2168 49.793 53.5527 46.9082 40.8789 41.3437L35.8887 41.3164V40.8926H31.3223V41.3437L29.1348 41.3574C16.4609 46.9082 12.7969 49.793 11.293 51.1328C10.8281 51.543 10.4043 52.1855 10.0215 52.9922C12.25 56.5332 15.2031 59.5684 18.6895 61.8789C18.8535 60.5801 18.9629 59.7871 18.9629 59.7871C18.9629 59.7871 18.9629 60.6348 18.9629 62.0566C23.584 65.0508 29.0938 66.8008 35 66.8008C40.9199 66.8008 46.4297 65.0645 51.0371 62.0566C51.0508 60.6211 51.0508 59.7734 51.0508 59.7734Z" fill="#B9DAF3"/>
<path d="M11.293 51.1191C12.7969 49.793 16.4609 46.9082 29.1348 41.3438L31.3223 41.3301V40.8789H35.8887V41.3027L40.8789 41.3301C53.5527 46.8809 57.2168 49.7656 58.7207 51.1055C59.1855 51.5156 59.6094 52.1582 59.9922 52.9648C62.8496 48.4258 64.5039 43.0527 64.5039 37.2832C64.4902 21 51.2832 7.79297 35 7.79297C18.7168 7.79297 5.50977 21 5.50977 37.2969C5.50977 43.0527 7.16406 48.4395 10.0215 52.9785C10.4043 52.1719 10.8281 51.5293 11.293 51.1191Z" fill="#D1E6F7"/>
<path d="M35 24.5137V47.3047C37.2285 47.3184 39.457 46.3203 41.1523 44.2559V30.2012C41.1523 26.4004 38.0762 24.5137 35 24.5137Z" fill="#EDD9B4"/>
<path d="M28.8477 30.2012V44.2422C30.543 46.2383 32.7715 47.2773 35 47.291V24.5137C31.9238 24.5137 28.8477 26.4004 28.8477 30.2012Z" fill="#DCC5A1"/>
<path fill-rule="evenodd" clip-rule="evenodd" d="M41.1523 30.2012V39.6074C38.8281 41.3027 36.5859 42.2598 35 42.2598C33.4141 42.2598 31.1719 41.3027 28.8477 39.6074V30.2012C28.8477 22.6133 41.1523 22.6133 41.1523 30.2012Z" fill="#BC9F82"/>
<path fill-rule="evenodd" clip-rule="evenodd" d="M41.1523 41.4668L46.0059 43.6816L39.8262 52.2539L35 47.3047L41.1523 41.4668Z" fill="#89BCE5"/>
<path fill-rule="evenodd" clip-rule="evenodd" d="M28.8477 41.4668L23.9941 43.6816L30.1738 52.2539L35 47.3047L28.8477 41.4668Z" fill="#89BCE5"/>
<path d="M35.1504 35.7519C35.1914 35.7519 35.2187 35.7519 35.2598 35.7519C38.2676 35.6152 35.7656 39.1288 39.5938 37.0781C43.4219 35.0273 43.2578 29.0527 41.3437 28.916C39.4434 28.7792 37.8711 30.1327 35.1641 30.1464H35.1367C35.0957 30.1464 35.0547 30.1464 35.0137 30.1464V35.7519C35.0547 35.7519 35.0957 35.7519 35.1504 35.7519Z" fill="#EDD9B4"/>
<path d="M29.1347 29.0527C27.2206 29.1894 26.6464 34.8906 30.4745 36.9414C34.1796 38.9238 32.3749 35.8203 34.9999 35.7519V30.1464C32.3476 30.1054 31.0214 28.916 29.1347 29.0527Z" fill="#DCC5A1"/>
<path d="M50.9961 21.3691C50.4219 21.1777 49.7793 21.4375 49.1914 21.9844C49.7383 14.2871 47.6055 4.97656 35 4.97656V29.1074C35.0273 29.1074 35.0684 29.1074 35.1094 29.1074H35.1504C37.2832 29.0801 40.9473 26.9746 42.4238 28.6426C44.625 31.1582 42.9297 35.875 41.043 37.1465C43.6406 35.3418 46.0742 33.0859 46.8809 31.9102C47.1816 31.4727 47.7559 29.9551 48.2754 27.8359C48.4121 27.9727 48.5898 28.082 48.7676 28.1504C49.8477 28.5059 51.2285 27.2754 51.8438 25.4023C52.459 23.5293 52.0762 21.7246 50.9961 21.3691Z" fill="#EDD9B4"/>
<path d="M20.7812 21.7109C20.289 21.3555 19.7832 21.2188 19.3183 21.3691C18.2383 21.7246 17.8554 23.5293 18.4707 25.4023C19.0859 27.2754 20.4668 28.5059 21.5469 28.1504C21.6289 28.123 21.7109 28.082 21.7793 28.041C22.2851 30.0508 22.832 31.5 23.1191 31.9102C23.9531 33.1406 26.5508 35.5195 29.2578 37.3516C26.6601 35.1641 25.6211 30.9258 27.9726 28.7383C29.5449 27.2754 32.8672 29.0391 35 29.0938V4.97656C22.5449 4.97656 20.3027 14.0684 20.7812 21.7109Z" fill="#DCC5A1"/>
<path d="M34.5625 39.8809C34.4941 39.8672 34.4395 39.8672 34.3711 39.8535C34.4395 39.8672 34.5078 39.8672 34.5625 39.8809Z" fill="#0B0C14"/>
<path d="M35.1504 39.9082C35.1641 39.9082 35.1777 39.9082 35.1777 39.9082C35.123 39.9082 35.0684 39.9219 35.0137 39.9219C35.0684 39.9082 35.1094 39.9082 35.1504 39.9082Z" fill="#0B0C14"/>
<path d="M41.0156 37.1738C41.0293 37.1738 41.0293 37.1602 41.043 37.1465C41.0156 37.1602 41.002 37.1738 40.9746 37.2012C40.9883 37.2012 41.002 37.1875 41.0156 37.1738Z" fill="#0B0C14"/>
<path d="M42.4238 28.6562C40.9472 26.9745 37.2831 29.08 35.1503 29.121H35.1093C35.082 29.121 35.0409 29.121 34.9999 29.121C32.8671 29.0663 29.5449 27.289 27.9726 28.7655C25.621 30.953 26.6601 35.1913 29.2577 37.3788C31.0214 38.582 32.8261 39.5527 34.2343 39.8398C34.2753 39.8534 34.33 39.8671 34.371 39.8671C34.4394 39.8808 34.4941 39.8808 34.5624 39.8945C34.7128 39.9081 34.8632 39.9218 34.9999 39.9218C35.0136 39.9218 35.0136 39.9218 35.0273 39.9218C35.082 39.9218 35.1366 39.9218 35.1913 39.9081C36.6952 39.8124 38.8554 38.5956 40.9745 37.2148C41.0019 37.2011 41.0156 37.1874 41.0429 37.1601C42.9296 35.8886 44.6249 31.1718 42.4238 28.6562ZM39.5937 37.0781C35.7656 39.1288 38.2675 35.6152 35.2597 35.7519C35.2187 35.7519 35.1913 35.7519 35.1503 35.7519C35.0956 35.7519 35.0546 35.7519 34.9999 35.7519C32.3749 35.8202 34.1796 38.9238 30.4745 36.9413C26.6464 34.8906 27.2206 29.1894 29.1347 29.0527C31.0214 28.9159 32.3476 30.1054 34.9999 30.1464C35.0409 30.1464 35.082 30.1464 35.123 30.1464H35.1503C37.871 30.1327 39.4296 28.7792 41.33 28.9159C43.2441 29.0527 43.4081 35.0273 39.5937 37.0781Z" fill="black"/>
<path fill-rule="evenodd" clip-rule="evenodd" d="M35.0274 12.0722C28.6426 12.0996 22.668 11.8125 21.4512 25.8125C18.3477 14.8613 22.586 3.11716 34.795 3.21286C47.4278 3.32224 51.9942 14.9433 48.5079 25.8261C45.6641 10.8008 40.8106 12.0449 35.0274 12.0722Z" fill="black"/>
<path d="M29.627 21.6836C30.3789 21.6836 30.9941 22.3809 30.9941 23.2285C30.9941 24.0898 30.3789 24.7734 29.627 24.7734C28.875 24.7734 28.2598 24.0762 28.2598 23.2285C28.2598 22.3809 28.8613 21.6836 29.627 21.6836Z" fill="#342214"/>
<path d="M40.7012 21.6836C41.4531 21.6836 42.0684 22.3809 42.0684 23.2285C42.0684 24.0898 41.4531 24.7734 40.7012 24.7734C39.9492 24.7734 39.334 24.0762 39.334 23.2285C39.334 22.3809 39.9492 21.6836 40.7012 21.6836Z" fill="#342214"/>
<path d="M32.3477 31.4727C32.8262 32.5391 33.9063 33.291 35.1641 33.291C36.4219 33.291 37.4883 32.5391 37.9805 31.4727H32.3477Z" fill="white"/>
<path d="M18.9629 62.043C18.9629 60.6211 18.9629 59.7734 18.9629 59.7734C18.9492 59.8008 18.9492 60.6348 18.9629 62.043Z" fill="#89BCE5"/>
<path d="M51.0371 62.043C51.1328 61.9883 51.2285 61.9199 51.3105 61.8652C51.1465 60.5664 51.0371 59.7734 51.0371 59.7734C51.0371 59.7734 51.0508 60.6211 51.0371 62.043Z" fill="#89BCE5"/>
<path d="M18.9492 59.7734C18.9492 59.7734 18.8398 60.5527 18.6758 61.8652C18.8398 60.5801 18.9492 59.8008 18.9492 59.7734Z" fill="#89BCE5"/>
<path d="M18.9629 62.043C18.9629 60.6348 18.9629 59.8008 18.9629 59.7734C18.9629 59.7871 18.8535 60.5801 18.6895 61.8652C18.7715 61.9199 18.8672 61.9883 18.9629 62.043Z" fill="#89BCE5"/>
</svg>
