<svg width="40" height="40" viewBox="0 0 40 40" fill="none" xmlns="http://www.w3.org/2000/svg">
<path d="M30.9692 25.5555H14.3025C13.0109 25.5555 12.3651 25.5555 11.8352 25.6975C10.3973 26.0828 9.27419 27.206 8.88892 28.6437" stroke="white" stroke-width="3.33333"/>
<path d="M14.4445 13.0555H25.5556" stroke="white" stroke-width="3.33333" stroke-linecap="round"/>
<path d="M14.4445 17.9166H21.3889" stroke="white" stroke-width="3.33333" stroke-linecap="round"/>
<path d="M21.3889 25.5555V30.4596C21.3889 30.8423 21.3889 31.0337 21.2571 31.1111C21.1255 31.1885 20.9453 31.1029 20.5849 30.9317L18.8596 30.1122C18.7377 30.0543 18.6767 30.0253 18.6112 30.0253C18.5456 30.0253 18.4846 30.0543 18.3627 30.1122L16.6374 30.9317C16.277 31.1029 16.0969 31.1885 15.9651 31.1111C15.8334 31.0337 15.8334 30.8423 15.8334 30.4596V26.1805" stroke="white" stroke-width="3.33333" stroke-linecap="round"/>
<path d="M17.2222 33.8889C13.2939 33.8889 11.3297 33.8889 10.1093 32.6684C8.88892 31.448 8.88892 29.4839 8.88892 25.5555V14.4444C8.88892 10.516 8.88892 8.55186 10.1093 7.33147C11.3297 6.11108 13.2939 6.11108 17.2222 6.11108H22.7778C26.7061 6.11108 28.6703 6.11108 29.8907 7.33147C31.1111 8.55186 31.1111 10.516 31.1111 14.4444M22.7778 33.8889C26.7061 33.8889 28.6703 33.8889 29.8907 32.6684C31.1111 31.448 31.1111 29.4839 31.1111 25.5555V20" stroke="white" stroke-width="3.33333" stroke-linecap="round"/>
</svg>
