<svg width="70" height="70" viewBox="0 0 70 70" fill="none" xmlns="http://www.w3.org/2000/svg">
<path d="M29.9141 47.8574C29.9688 47.9395 32.1152 48.0078 34.4941 48.0898H35.4922C37.8848 48.0078 40.0312 47.9395 40.0723 47.8574C43.2988 52.9297 51.0918 55.3359 57.0254 56.6621C57.7637 56.8262 58.4062 57.0859 58.9805 57.4277C62.4395 52.6016 64.4766 46.6816 64.4766 40.2832C64.4902 24 51.2832 10.793 35 10.793C18.7168 10.793 5.50977 24 5.50977 40.2969C5.50977 46.6953 7.54688 52.6152 11.0059 57.4414C11.5801 57.0996 12.2227 56.8398 12.9609 56.6758C18.8945 55.3496 26.6875 52.9434 29.9141 47.8574Z" fill="#55969D"/>
<path fill-rule="evenodd" clip-rule="evenodd" d="M35.3966 57.0449C18.5802 57.3867 16.7071 37.5488 17.3087 27.7461C18.4434 9.46682 35.0274 2.13869 41.795 8.41408C48.9864 8.41408 52.3634 17.3555 53.17 27.5547C54.2637 41.1446 49.2462 56.7578 35.3966 57.0449Z" fill="#A24323"/>
<path d="M34.084 69.7734V56.8672L35 55.9238L35.916 56.8672V69.7734C45.4316 69.4863 53.8125 64.6875 58.9941 57.4414C58.4199 57.0996 57.7773 56.8398 57.0391 56.6758C51.1055 55.3496 43.3125 52.9434 40.0859 47.8711C40.0312 47.9531 37.8848 48.0215 35.5059 48.1035H34.5078C32.1152 48.0215 29.9687 47.9531 29.9277 47.8711C26.7012 52.9434 18.9082 55.3496 12.9746 56.6758C12.2363 56.8398 11.5938 57.0996 11.0195 57.4414C16.1875 64.6875 24.5684 69.4863 34.084 69.7734Z" fill="#288085"/>
<path d="M40.5918 34.5C40.5918 30.8086 37.8027 28.9629 35 28.9629V55.9102L40.5918 48.1719V34.5Z" fill="#EDD9B4"/>
<path d="M29.4082 34.5V48.1855L35 55.9102V28.9492C32.2109 28.9492 29.4082 30.7949 29.4082 34.5Z" fill="#DCC5A1"/>
<path fill-rule="evenodd" clip-rule="evenodd" d="M40.5918 34.5V43.6602C38.4727 45.3145 36.4355 46.2441 35 46.2441C33.5645 46.2441 31.5273 45.3145 29.4082 43.6602V34.5C29.4219 27.1035 40.5918 27.1035 40.5918 34.5Z" fill="#BC9F82"/>
<path d="M32.2382 26.2969C30.6249 25.3535 28.1639 24.998 25.5936 25.1758C23.0233 25.3535 21.2323 26.3789 21.1503 26.4336C21.0682 26.4883 21.0819 27.0762 21.0819 27.4453C21.0819 27.8144 21.1229 28.1289 21.246 28.2519C21.369 28.375 22.0253 28.5937 22.2577 29.6055C22.4901 30.6172 23.0507 32.791 24.6229 34.0625C26.1952 35.334 27.9589 35.6074 30.1053 34.8691C32.2518 34.1309 33.0175 32.3125 33.1815 31.998C33.3456 31.6836 33.8104 30.1523 34.0155 29.7559C34.2206 29.3594 34.4667 29.1543 34.7811 29.1543V27.1445C34.1385 27.1582 33.8514 27.2402 32.2382 26.2969ZM33.0448 29.7559C32.8397 31.5605 31.2538 34.6094 28.5331 34.7324C25.8124 34.8555 24.0214 33.1328 23.4198 31.6152C22.8182 30.0977 22.5448 27.7324 24.4452 26.8027C26.3456 25.873 29.1346 25.873 31.1444 26.6387C33.1542 27.4043 33.1815 28.5527 33.0448 29.7559Z" fill="#703D22"/>
<path d="M35.5469 29.7559C35.752 30.1523 36.2168 31.6836 36.3809 31.998C36.5449 32.3125 37.3105 34.1309 39.457 34.8691C41.6035 35.6074 43.3672 35.334 44.9395 34.0625C46.5117 32.791 47.0723 30.6172 47.3047 29.6055C47.5371 28.5937 48.1934 28.375 48.3164 28.2519C48.4395 28.1289 48.4805 27.8144 48.4805 27.4453C48.4805 27.0762 48.4941 26.4883 48.4121 26.4336C48.3301 26.3789 46.5391 25.3535 43.9688 25.1758C41.3984 24.998 38.9375 25.3535 37.3242 26.2969C35.7109 27.2402 35.4238 27.1582 34.7812 27.1582V29.168C35.1094 29.168 35.3418 29.3594 35.5469 29.7559ZM38.418 26.6387C40.4277 25.873 43.2168 25.873 45.1172 26.8027C47.0176 27.7324 46.7441 30.1113 46.1426 31.6152C45.541 33.1328 43.75 34.8691 41.0293 34.7324C38.3086 34.6094 36.7227 31.5605 36.5176 29.7559C36.3809 28.5527 36.4082 27.4043 38.418 26.6387Z" fill="#562C19"/>
<path d="M20.6858 25.2988C20.1116 24.957 19.5237 24.8477 19.0178 25.0664C17.842 25.5723 17.6096 27.6094 18.4709 29.6328C19.3323 31.6426 20.9729 32.873 22.1487 32.3945C25.1428 39.3125 31.719 43.9609 35.0002 43.9609V9.93164C25.5256 9.93164 20.7815 17.875 20.6858 25.2988Z" fill="#DCC5A1"/>
<path d="M51.2969 25.0664C50.709 24.8066 49.9844 25.0117 49.3145 25.5176C49.3145 18.0391 44.5703 9.93164 35 9.93164V43.9609C38.3086 43.9609 44.9395 39.2441 47.9062 32.2441C47.9883 32.2988 48.0703 32.3535 48.1523 32.3809C49.3281 32.8867 50.9688 31.6562 51.8438 29.6328C52.7188 27.6094 52.4727 25.5723 51.2969 25.0664Z" fill="#EDD9B4"/>
<path d="M40.5918 48.1719L35 55.9102L35.2051 56.1152L39.0469 60.0938L44.5703 52.0957L40.5918 48.1719Z" fill="white"/>
<path d="M29.4082 48.1719L25.4297 52.0957L30.9531 60.0938L34.7949 56.1152L35 55.9102L29.4082 48.1719Z" fill="white"/>
<path d="M36.4902 37.9863C36.4902 37.9863 36.5449 38.9297 34.9316 38.9297C34.4668 38.9297 33.4004 38.7246 33.4004 38.0137C34.3574 38.2324 35.4785 38.2871 36.4902 37.9863Z" fill="#D43329"/>
<path d="M35.5605 37.5898C35.916 37.6445 36.5449 37.9726 36.5039 37.9726C35.4922 38.2734 34.3574 38.2187 33.4141 38C33.4004 38 33.4004 38 33.3867 37.9863C33.7148 37.8496 34.125 37.5762 34.4395 37.6035C34.6172 37.6172 34.8086 37.7402 34.959 37.7402C35.1777 37.7539 35.3281 37.5625 35.5605 37.5898Z" fill="#CA3029"/>
<path d="M32.8672 37.8633C34.084 38.3691 35.7656 38.4102 36.9551 37.8496C36.9824 37.8359 36.9688 37.7949 36.9277 37.7949C35.5195 38.2461 34.3301 38.1641 32.8672 37.8633Z" fill="#A82623"/>
<path d="M29.3264 28.1289C30.092 28.1289 30.7209 28.8398 30.7209 29.7148C30.7209 30.5898 30.092 31.3008 29.3264 31.3008C28.5471 31.3008 27.9319 30.5898 27.9319 29.7148C27.9182 28.8398 28.5471 28.1289 29.3264 28.1289Z" fill="#342214"/>
<path d="M40.6738 28.1289C41.4395 28.1289 42.0684 28.8398 42.0684 29.7148C42.0684 30.5898 41.4395 31.3008 40.6738 31.3008C39.8945 31.3008 39.2793 30.5898 39.2793 29.7148C39.2793 28.8398 39.9082 28.1289 40.6738 28.1289Z" fill="#342214"/>
<path fill-rule="evenodd" clip-rule="evenodd" d="M49.7931 29.9063C54.1954 11.0664 40.9337 7.86719 33.1817 7.86719C24.4591 7.86719 17.8966 18.2168 19.3595 30.2617C24.0079 27.459 28.1095 21.9219 38.2677 12.8848C36.7911 15.5371 33.9063 20.3633 24.1036 29.0996C29.3809 29.9746 39.1973 23.3301 44.4337 16.3711C45.7052 21.3066 47.4962 26.7207 49.7931 29.9063Z" fill="#A24323"/>
<path d="M35.916 56.8535L35 55.9102L34.084 56.8535V69.7598C34.3848 69.7734 34.6992 69.7734 35 69.7734C35.3145 69.7734 35.6152 69.7734 35.916 69.7598V56.8535Z" fill="white"/>
</svg>
