<svg width="40" height="40" viewBox="0 0 40 40" fill="none" xmlns="http://www.w3.org/2000/svg">
<path d="M7.96318 36.6667C7.47204 36.6667 7.00101 36.4716 6.65372 36.1243C6.30643 35.777 6.11133 35.306 6.11133 34.8148V6.11113C6.11133 5.61999 6.30643 5.14896 6.65372 4.80167C7.00101 4.45438 7.47204 4.25928 7.96318 4.25928C8.45432 4.25928 8.92535 4.45438 9.27264 4.80167C9.61993 5.14896 9.81503 5.61999 9.81503 6.11113V34.8148C9.81503 35.306 9.61993 35.777 9.27264 36.1243C8.92535 36.4716 8.45432 36.6667 7.96318 36.6667Z" fill="#E1E8ED"/>
<path d="M7.96318 4.25928C7.47204 4.25928 7.00101 4.45438 6.65372 4.80167C6.30643 5.14896 6.11133 5.61999 6.11133 6.11113V34.8148C6.11133 34.9376 6.1601 35.0554 6.24693 35.1422C6.33375 35.229 6.45151 35.2778 6.57429 35.2778C6.69708 35.2778 6.81483 35.229 6.90166 35.1422C6.98848 35.0554 7.03725 34.9376 7.03725 34.8148V7.42039C7.03725 6.69724 7.62337 6.11113 8.34651 6.11113H9.81503C9.81503 5.61999 9.61993 5.14896 9.27264 4.80167C8.92535 4.45438 8.45432 4.25928 7.96318 4.25928Z" fill="#E1E8ED"/>
<path d="M7.96318 36.6667C7.47204 36.6667 7.00101 36.4716 6.65372 36.1243C6.30643 35.777 6.11133 35.306 6.11133 34.8148V6.11113C6.11133 5.61999 6.30643 5.14896 6.65372 4.80167C7.00101 4.45438 7.47204 4.25928 7.96318 4.25928C8.45432 4.25928 8.92535 4.45438 9.27264 4.80167C9.61993 5.14896 9.81503 5.61999 9.81503 6.11113V34.8148C9.81503 35.306 9.61993 35.777 9.27264 36.1243C8.92535 36.4716 8.45432 36.6667 7.96318 36.6667Z" fill="#E1E8ED"/>
<path d="M7.96318 4.25928C7.47204 4.25928 7.00101 4.45438 6.65372 4.80167C6.30643 5.14896 6.11133 5.61999 6.11133 6.11113V34.8148C6.11133 34.9376 6.1601 35.0554 6.24693 35.1422C6.33375 35.229 6.45151 35.2778 6.57429 35.2778C6.69708 35.2778 6.81483 35.229 6.90166 35.1422C6.98848 35.0554 7.03725 34.9376 7.03725 34.8148V7.42039C7.03725 6.69724 7.62337 6.11113 8.34651 6.11113H9.81503C9.81503 5.61999 9.61993 5.14896 9.27264 4.80167C8.92535 4.45438 8.45432 4.25928 7.96318 4.25928Z" fill="#E1E8ED"/>
<path d="M33.3475 6.19447C31.7253 5.45466 30.0003 5.0954 28.0716 5.0954C25.7401 5.0954 23.4234 5.62318 21.1845 6.13429C18.9456 6.64447 16.8308 7.12688 14.7077 7.12688C13.0503 7.12688 11.5762 6.82225 10.2003 6.1954C10.0592 6.13088 9.90426 6.10282 9.74956 6.1138C9.59486 6.12477 9.4454 6.17443 9.31489 6.25821C9.18437 6.34199 9.077 6.45721 9.00261 6.5933C8.92823 6.72939 8.88922 6.88198 8.88916 7.03706V24.6297C8.88916 24.9926 9.1012 25.3213 9.43083 25.4722C11.053 26.2121 12.779 26.5713 14.7068 26.5713C17.0382 26.5713 19.3549 26.0435 21.5938 25.5324C23.8327 25.0222 25.9475 24.5408 28.0706 24.5408C29.728 24.5408 31.203 24.8454 32.578 25.4732C32.7193 25.537 32.8742 25.5644 33.0288 25.553C33.1834 25.5416 33.3326 25.4917 33.4629 25.4079C33.5933 25.324 33.7006 25.2089 33.775 25.073C33.8494 24.937 33.8887 24.7846 33.8892 24.6297V7.03706C33.8892 6.85946 33.8381 6.68559 33.7421 6.5362C33.6461 6.3868 33.5091 6.26818 33.3475 6.19447Z" fill="#E1E8ED"/>
</svg>
