<svg width="174" height="69" viewBox="0 0 174 69" fill="none" xmlns="http://www.w3.org/2000/svg">
<path d="M25.7578 19.4575C27.3443 19.4905 28.6679 18.3379 30.8139 16.8276C30.1794 16.6528 29.548 16.5694 28.9378 16.5694C26.8485 16.5721 25.0469 17.5348 24.1209 19.1361C24.7445 19.3645 25.2763 19.4575 25.7578 19.4575ZM23.2616 20.318C23.1491 20.2709 23.0455 20.2227 22.9478 20.1767L22.3445 19.8953L22.6025 19.2351C23.6395 16.5992 26.1781 15.1327 28.9378 15.1354C30.028 15.1376 31.1607 15.3627 32.2702 15.8373C32.3831 15.8854 32.4877 15.9341 32.5829 15.9785L33.7782 16.5353L32.6589 17.2562C29.9303 18.9819 28.3384 20.8515 25.7578 20.8894C24.9907 20.8894 24.1713 20.707 23.2616 20.318Z" fill="url(#paint0_linear_108_322)"/>
<path d="M18.643 15.2109C18.644 15.902 19.1551 16.4637 19.7875 16.4653C20.419 16.4637 20.9296 15.9036 20.931 15.2109C20.9296 14.5166 20.419 13.9555 19.7875 13.9555C19.1551 13.9555 18.644 14.5166 18.643 15.2109ZM17.3362 15.2109C17.3372 13.7244 18.4338 12.523 19.7875 12.522C21.1412 12.523 22.2369 13.726 22.2378 15.2109H22.2369C22.2369 16.6947 21.1412 17.8977 19.7875 17.8977C18.4338 17.8977 17.3372 16.6947 17.3362 15.2109Z" fill="url(#paint1_linear_108_322)"/>
<path d="M9.42822 28.2632C11.443 26.9996 11.9738 25.7842 12.6555 24.3231C13.3127 22.8712 14.1187 21.1758 16.4073 19.7796C18.0086 18.7807 19.3485 18.5291 20.5142 18.5345C21.4905 18.5377 22.3301 18.6882 23.1712 18.6849H23.19V20.1184H23.1712C22.1949 20.1152 21.3553 19.9653 20.5142 19.9674C19.5083 19.9723 18.4797 20.1476 17.0481 21.0286C15.0348 22.2911 14.504 23.5076 13.8223 24.9676C13.1651 26.42 12.3591 28.1165 10.0705 29.5127L9.42822 28.2632Z" fill="url(#paint2_linear_108_322)"/>
<path d="M7.62185 28.621C8.10925 28.621 8.5858 28.5409 9.04213 28.3759C8.20693 26.9359 7.46251 26.5111 6.32737 26.1972C5.37624 25.9477 4.14145 25.8774 2.56972 25.6003C3.92291 27.5414 5.85477 28.627 7.62185 28.621ZM7.62185 30.054C4.9954 30.0464 2.34033 28.2427 0.802144 25.2556C0.741465 25.1376 0.686707 25.0245 0.636881 24.9152L0 23.5559L1.36009 23.8898C3.53861 24.4287 5.16313 24.4325 6.62484 24.8021C8.09396 25.1539 9.3845 26.043 10.3919 28.0555C10.4511 28.1708 10.5048 28.2822 10.5542 28.3867L10.86 29.0242L10.2769 29.3548C9.44468 29.8288 8.53993 30.054 7.63073 30.054H7.62185Z" fill="url(#paint3_linear_108_322)"/>
<path d="M13.7634 20.6987C14.5152 20.6971 15.2295 20.5239 15.8709 20.1689C14.4318 18.3306 12.4847 17.3522 10.7309 17.3566C9.97861 17.3577 9.26477 17.5314 8.62444 17.8864C10.0635 19.7257 12.0091 20.7014 13.7634 20.6987ZM7.3344 18.4178C7.25842 18.3106 7.19133 18.2089 7.12967 18.1169L6.74487 17.5362L7.27421 17.1158C8.29243 16.3062 9.50058 15.9242 10.7309 15.9242C13.055 15.9285 15.4728 17.257 17.1624 19.6391C17.2344 19.7419 17.303 19.8431 17.3686 19.9416L17.749 20.5223L17.2211 20.9411C16.2014 21.7491 14.9947 22.1311 13.7634 22.1311C11.4408 22.1268 9.02255 20.7983 7.3344 18.4178Z" fill="url(#paint4_linear_108_322)"/>
<path d="M15.1992 13.8959C15.1992 14.4733 14.7724 14.9414 14.2456 14.9414C13.7192 14.9414 13.2935 14.4733 13.2935 13.8959C13.2935 13.3185 13.7192 12.8504 14.2456 12.8504C14.7724 12.8504 15.1992 13.3185 15.1992 13.8959Z" fill="url(#paint5_linear_108_322)"/>
<path d="M14.7824 30.3094C14.7824 31.1649 14.9501 31.9745 15.294 32.6969C16.7044 31.3067 16.9269 30.1568 16.953 28.3683C16.954 27.4608 16.8682 26.4126 16.8149 25.1917C15.4795 26.7064 14.7789 28.5918 14.7824 30.3094ZM14.6142 34.1926C13.8397 33.0573 13.4746 31.6963 13.4761 30.3094C13.4785 27.7941 14.6507 25.1712 16.7661 23.308C16.8603 23.2258 16.9515 23.1522 17.0334 23.084L18.0714 22.2214L18.0808 23.6495C18.0916 25.4639 18.2579 26.971 18.2593 28.3683C18.2875 30.4522 17.7882 32.402 15.7986 34.1087C15.7044 34.1926 15.6146 34.2662 15.5303 34.3355L15.0064 34.77L14.6142 34.1926Z" fill="url(#paint6_linear_108_322)"/>
<path d="M10.0262 37.5422C9.61037 37.5422 9.1871 37.4243 8.80379 37.1824C8.01842 36.6829 7.57788 35.7781 7.57788 34.8522C7.57788 34.3966 7.68395 33.9301 7.90693 33.5096C8.36079 32.6492 9.18562 32.1649 10.0307 32.166C10.4441 32.1649 10.8698 32.2828 11.2541 32.5269L10.928 33.1471L10.6015 33.7672C10.4184 33.6514 10.2251 33.5994 10.0307 33.5984C9.63455 33.5994 9.25025 33.8219 9.03664 34.2288C8.93304 34.4247 8.8847 34.6368 8.8847 34.8522C8.8847 35.2867 9.08893 35.7078 9.45695 35.9421C9.63701 36.0557 9.83188 36.1087 10.0262 36.1104C10.4239 36.1087 10.8082 35.8847 11.0188 35.4837C11.1254 35.2802 11.1737 35.0687 11.1737 34.8565C11.1722 34.4204 10.9695 34.0004 10.6015 33.7672L10.928 33.1471L11.2541 32.5269C12.04 33.0237 12.4805 33.9301 12.4791 34.8565C12.4791 35.3116 12.3715 35.7754 12.1515 36.1991C11.6981 37.0579 10.8738 37.5422 10.0307 37.5422H10.0262Z" fill="url(#paint7_linear_108_322)"/>
<path d="M15.1555 51.2297V51.1026C15.1422 48.6404 14.4565 47.5402 13.6568 46.1841C12.8522 44.855 11.9321 43.2706 11.946 40.4815C11.946 40.4323 11.946 40.3863 11.9474 40.35C11.9677 36.5988 13.5779 35.0928 14.4742 33.36V33.3611L15.6064 34.0749C14.5068 36.1513 13.2991 37.0788 13.2533 40.37C13.2518 40.4117 13.2518 40.4485 13.2518 40.4815C13.2651 42.9432 13.9493 44.0428 14.75 45.3989C15.5536 46.7279 16.4747 48.3119 16.4613 51.1026V51.2297H15.1555Z" fill="url(#paint8_linear_108_322)"/>
<path d="M11.9497 53.1588C11.2847 53.937 10.6167 55.0642 9.62414 56.404C12.4469 55.9993 14.6082 54.0203 15.0546 51.642C13.4814 51.7199 12.7745 52.2177 11.9497 53.1588ZM8.56398 57.9111H8.46433C8.34396 57.9101 8.22951 57.9057 8.11753 57.8998L6.7229 57.8262L7.66811 56.699C9.16781 54.9143 9.98328 53.3844 10.9941 52.1826C11.9926 50.9688 13.3152 50.1749 15.3664 50.1998C15.4167 50.1998 15.4542 50.2014 15.472 50.2031C15.5914 50.2031 15.7078 50.2068 15.8168 50.2123L16.472 50.2409L16.4419 50.9612C16.2549 54.9435 12.7296 57.9111 8.56744 57.9111H8.56398Z" fill="url(#paint9_linear_108_322)"/>
<path d="M6.55907 46.7974C9.66898 46.1551 11.8628 43.6658 11.9871 41.0542C8.87769 41.6955 6.6824 44.1864 6.55907 46.7974ZM5.27791 47.6952C5.2562 47.4814 5.24683 47.2698 5.24683 47.0647C5.26705 43.3286 8.27731 40.1575 12.2131 39.5617C12.329 39.5455 12.4449 39.5303 12.5579 39.5184L13.2051 39.4481L13.2698 40.1592C13.29 40.3675 13.2993 40.5758 13.2993 40.7858C13.2791 44.5213 10.2703 47.6935 6.33411 48.2882C6.21275 48.3072 6.0988 48.3196 5.99372 48.331L5.34648 48.4041L5.27791 47.6952Z" fill="url(#paint10_linear_108_322)"/>
<path d="M5.05077 36.0771C4.72715 36.0771 4.39811 35.9852 4.0957 35.7985C3.48496 35.4099 3.13964 34.7043 3.14112 33.9808C3.14112 33.6274 3.22301 33.261 3.39765 32.9336C3.75087 32.2637 4.39367 31.8833 5.05472 31.8849C5.37735 31.8833 5.70837 31.9747 6.0093 32.1663L5.68174 32.7864L5.35565 33.4066C5.25649 33.3449 5.15684 33.3184 5.05472 33.3168C4.84407 33.3184 4.6423 33.4347 4.52686 33.6539C4.47359 33.7573 4.44793 33.8666 4.44793 33.9808C4.44892 34.2124 4.55548 34.4348 4.7459 34.5554C4.84407 34.6161 4.94718 34.6442 5.05077 34.6453C5.2629 34.6442 5.46418 34.5273 5.57567 34.3157C5.6324 34.2064 5.65756 34.0944 5.65756 33.9824C5.65658 33.7513 5.55002 33.53 5.35565 33.4066L5.68174 32.7864L6.0093 32.1663C6.62053 32.5538 6.96388 33.2594 6.96388 33.9824C6.96388 34.3374 6.87953 34.7016 6.70785 35.0295C6.35414 35.7016 5.70985 36.0771 5.05472 36.0771H5.05077Z" fill="url(#paint11_linear_108_322)"/>
<path d="M6.69709 38.5564C7.15292 38.8454 7.3093 39.485 7.04587 39.985C6.78293 40.485 6.20031 40.656 5.74448 40.3671C5.28865 40.0781 5.13226 39.4395 5.39521 38.9401C5.65864 38.439 6.24126 38.2685 6.69709 38.5564Z" fill="url(#paint12_linear_108_322)"/>
<path d="M21.5897 47.8658C21.2705 46.1877 20.6647 45.3809 19.6954 44.6076C18.8769 43.9685 17.761 43.4241 16.4232 42.6681C17.2144 45.7055 19.3688 47.7749 21.5897 47.8658ZM14.9121 41.773C14.8934 41.6399 14.881 41.5182 14.8682 41.4116L14.698 39.984L15.8381 40.6951C17.6362 41.8185 19.1813 42.4625 20.4492 43.4381C21.7249 44.4036 22.6553 45.8181 22.9553 48.0931C22.974 48.2246 22.9863 48.3474 22.9997 48.4611L23.0801 49.1797L22.4234 49.2603C22.2069 49.2874 21.9903 49.302 21.7723 49.302C18.4009 49.2798 15.5095 46.047 14.9121 41.773Z" fill="url(#paint13_linear_108_322)"/>
<path d="M20.0851 52.86C19.7176 53.0916 19.5153 53.5115 19.5143 53.9482C19.5143 54.1593 19.5627 54.3736 19.6673 54.5732C19.8794 54.9748 20.2642 55.2015 20.6608 55.2015C20.8562 55.2015 21.05 55.1479 21.2291 55.0348C21.5986 54.8005 21.8019 54.3784 21.8034 53.9434C21.8034 53.7285 21.755 53.518 21.6499 53.3183C21.4368 52.9136 21.054 52.6911 20.6569 52.6906C20.464 52.6906 20.2686 52.7431 20.0866 52.8578L19.7605 52.2393L20.0851 52.86ZM18.5371 55.2897C18.3146 54.8687 18.2085 54.4039 18.2085 53.9482C18.2065 53.0212 18.6471 52.1159 19.4334 51.6191L19.4329 51.6186C19.8172 51.3756 20.24 51.2571 20.6569 51.2571C21.5 51.256 22.3263 51.7398 22.7816 52.6008C23.0026 53.0223 23.1092 53.4882 23.1092 53.9434C23.1102 54.8703 22.6681 55.7746 21.8843 56.2751C21.5 56.5181 21.0757 56.635 20.6608 56.635C19.8148 56.635 18.9899 56.1501 18.5371 55.2897Z" fill="url(#paint14_linear_108_322)"/>
<path d="M32.5059 56.1157C31.7931 56.1157 31.0699 56.2099 30.2559 56.211C29.0418 56.2169 27.6388 55.9707 25.9566 54.8727C23.005 52.9776 22.6212 50.6945 21.7021 48.9775L22.8314 48.2588C23.9216 50.3417 24.0499 51.9522 26.6226 53.6389C28.1252 54.6054 29.1873 54.7731 30.2559 54.778C30.9697 54.7796 31.6924 54.6849 32.5059 54.6839C33.7215 54.6774 35.125 54.9258 36.8097 56.0275L36.1437 57.2603C34.6366 56.2905 33.5765 56.1222 32.5059 56.1157Z" fill="url(#paint15_linear_108_322)"/>
<path d="M35.8461 59.8107C35.8165 61.1884 36.6206 62.6722 37.4677 65.1101C37.8658 64.0614 38.0577 62.9861 38.0562 61.9666C38.0547 60.1797 37.477 58.5963 36.4233 57.5676C35.9961 58.4578 35.8476 59.1532 35.8461 59.8107ZM36.7242 67.1129C35.8244 63.8898 34.5758 62.1587 34.5408 59.8107C34.5383 58.7636 34.8353 57.6737 35.4968 56.4518C35.5585 56.3349 35.6212 56.2261 35.6789 56.1265L36.0296 55.5226L36.5807 55.9079C38.4213 57.198 39.3665 59.5087 39.364 61.9666C39.3625 63.6214 38.9422 65.3607 38.0779 66.9635C38.0172 67.0777 37.9571 67.1822 37.8988 67.2817L37.1441 68.5864L36.7242 67.1129Z" fill="url(#paint16_linear_108_322)"/>
<path d="M26.0844 58.0128C26.0869 60.2526 26.9324 62.1894 28.3527 63.211C28.6566 62.2619 28.8006 61.3024 28.8006 60.3846C28.7977 58.1438 27.9521 56.2059 26.5328 55.1859C26.228 56.1372 26.0844 57.0961 26.0844 58.0128ZM28.4193 64.8799C26.0696 63.7208 24.7741 60.981 24.7786 58.0128C24.7786 56.7725 25.0011 55.4819 25.4687 54.2232C25.5136 54.1052 25.5595 53.9894 25.6054 53.8768L25.8738 53.2285L26.4662 53.5186C28.8145 54.6745 30.1099 57.4148 30.1075 60.3846C30.1075 61.6266 29.883 62.9172 29.4193 64.17C29.3719 64.2987 29.3246 64.4124 29.2826 64.5152L29.0167 65.1743L28.4193 64.8799Z" fill="url(#paint17_linear_108_322)"/>
<path d="M17.1768 57.6639C16.9854 57.784 16.8789 58.0021 16.8774 58.237C16.8774 58.349 16.903 58.4615 16.9583 58.5676C17.0703 58.7792 17.2755 58.8993 17.4851 58.9004C17.5907 58.8993 17.6909 58.8723 17.7826 58.8144C17.9804 58.6894 18.087 58.4653 18.0885 58.237C18.087 58.1228 18.0623 58.0118 18.0061 57.9047C17.8926 57.6888 17.6918 57.5735 17.4802 57.5719C17.3791 57.5719 17.2779 57.6 17.1808 57.6606L16.8532 57.0427L17.1768 57.6639ZM15.8286 59.2852C15.6559 58.9567 15.571 58.593 15.571 58.237C15.5696 57.5151 15.9134 56.8062 16.5296 56.4198V56.4203C16.8266 56.2315 17.1566 56.1389 17.4802 56.1389C18.1383 56.1389 18.7826 56.5167 19.1373 57.1882C19.31 57.5172 19.3938 57.8798 19.3938 58.237C19.3948 58.9583 19.05 59.6607 18.4387 60.0541C18.1383 60.2441 17.8053 60.3323 17.4851 60.3323C16.8246 60.3323 16.1833 59.9546 15.8286 59.2852Z" fill="url(#paint18_linear_108_322)"/>
<path d="M21.9159 58.9632C22.3718 58.6753 22.9544 58.8463 23.2178 59.3463C23.4813 59.8469 23.3244 60.4854 22.8685 60.7744C22.4122 61.0628 21.8301 60.8918 21.5672 60.3923C21.3032 59.8918 21.4601 59.2522 21.9159 58.9632Z" fill="url(#paint19_linear_108_322)"/>
<path d="M31.8948 52.0334C33.9811 52.0301 35.7837 51.0669 36.7116 49.4672C36.0885 49.24 35.5553 49.1469 35.0743 49.1469C33.4872 49.1128 32.1637 50.2649 30.0197 51.7763C30.6536 51.9516 31.2846 52.0344 31.8948 52.0334ZM31.8948 53.4663C30.8055 53.4663 29.6724 53.2401 28.5644 52.7677C28.4484 52.7174 28.3448 52.6687 28.257 52.6286L27.0439 52.0777L28.1751 51.3488C30.9008 49.6209 32.4942 47.7518 35.0743 47.7134C35.8439 47.7134 36.6638 47.8963 37.5725 48.2854C37.6844 48.3335 37.7895 48.3828 37.8867 48.4282L38.49 48.7091L38.2315 49.3715C37.1931 51.9982 34.6604 53.4663 31.9071 53.4663H31.8948Z" fill="url(#paint20_linear_108_322)"/>
<path d="M41.0478 54.6488C41.6787 54.6477 42.1908 54.0871 42.1923 53.3939C42.1908 52.7017 41.6777 52.14 41.0478 52.1384C40.4158 52.1384 39.9023 52.7001 39.9023 53.3949C39.9023 54.0882 40.4143 54.6488 41.0478 54.6488ZM38.5959 53.3955H39.2496L38.5959 53.3939C38.5959 51.91 39.6931 50.7071 41.0478 50.7055C42.4005 50.7071 43.4971 51.909 43.4986 53.3939C43.4971 54.8793 42.4005 56.0807 41.0478 56.0823C39.6931 56.0807 38.5959 54.8793 38.5959 53.3955Z" fill="url(#paint21_linear_108_322)"/>
<path d="M40.3168 50.0657C39.342 50.063 38.5033 49.9152 37.6627 49.9169V49.4136L37.7081 49.9152H37.7101L37.5793 48.4899C37.5858 48.4899 37.6129 48.4855 37.6627 48.4855C38.6375 48.4866 39.4757 48.6349 40.3168 48.6333C41.3232 48.6273 42.3518 48.4536 43.7873 47.5742C45.7991 46.3117 46.3299 45.0953 47.0122 43.6347C47.6683 42.1833 48.4759 40.4874 50.7659 39.0918L51.4062 40.3391C49.3915 41.6038 48.8597 42.8203 48.1784 44.2797C47.5218 45.7327 46.7147 47.4281 44.4272 48.8237C42.8357 49.8119 41.5052 50.0657 40.3469 50.0657H40.3168Z" fill="url(#paint22_linear_108_322)"/>
<path d="M54.5062 42.4078C55.4579 42.6572 56.6931 42.7276 58.2644 43.0036C56.9097 41.0608 54.9779 39.9753 53.2113 39.9802C52.7224 39.9807 52.2458 40.0603 51.791 40.2259C52.6277 41.6675 53.3716 42.0928 54.5062 42.4078ZM59.4745 44.7147C57.2955 44.1762 55.671 44.1713 54.2088 43.8023C52.7401 43.45 51.4496 42.5614 50.4462 40.556C50.3825 40.4347 50.3273 40.3195 50.2775 40.2134L49.9785 39.5797L50.5552 39.2496C51.3889 38.7713 52.2981 38.5478 53.2113 38.5478C55.8367 38.5548 58.4933 40.3606 60.0334 43.3521C60.0941 43.4695 60.1459 43.5799 60.1938 43.6811L60.8553 45.054L59.4745 44.7147Z" fill="url(#paint23_linear_108_322)"/>
<path d="M50.1007 51.2456C50.8511 51.2445 51.5654 51.0708 52.2077 50.7158C50.7687 48.8776 48.822 47.9019 47.0693 47.9046C46.3169 47.9051 45.6031 48.0788 44.9623 48.4338C46.4008 50.2732 48.346 51.2499 50.1007 51.2456ZM50.1007 52.6775C47.7777 52.6753 45.3614 51.3468 43.6703 48.9636C43.5987 48.8619 43.5316 48.7607 43.4665 48.6616L43.0876 48.0826L43.6125 47.6649C44.6303 46.8526 45.8399 46.4711 47.0693 46.4711C49.3928 46.4754 51.8106 47.8056 53.4963 50.1823C53.5762 50.2927 53.6438 50.3966 53.7045 50.4886L54.0883 51.0697L53.557 51.4897C52.5392 52.2954 51.3355 52.6775 50.1081 52.6775H50.1007Z" fill="url(#paint24_linear_108_322)"/>
<path d="M42.4153 58.0892C42.2993 58.2164 42.2426 58.3787 42.2411 58.5535C42.2426 58.7251 42.2993 58.8934 42.4207 59.0249C42.5366 59.1537 42.6915 59.2186 42.8484 59.2202C43.0058 59.2186 43.1572 59.1569 43.2712 59.0314C43.393 58.895 43.4513 58.7267 43.4513 58.5562C43.4498 58.3852 43.393 58.2191 43.2732 58.0876C43.1513 57.9539 43.0033 57.8939 42.8455 57.8928C42.6891 57.8939 42.5376 57.9561 42.4192 58.086L41.9565 57.58L42.4153 58.0892ZM42.8484 60.6521C42.3585 60.6521 41.8677 60.4454 41.4972 60.0401C41.1247 59.632 40.9343 59.0904 40.9358 58.5535C40.9343 58.0227 41.1193 57.481 41.4952 57.073L41.4947 57.0724C41.8667 56.666 42.3576 56.4588 42.8455 56.4604C43.3304 56.4588 43.8252 56.6644 44.1977 57.074C44.5701 57.4826 44.7581 58.0227 44.7581 58.5562C44.7581 59.092 44.5681 59.6277 44.1991 60.0401C43.8286 60.4465 43.3368 60.6521 42.8538 60.6521H42.8484Z" fill="url(#paint25_linear_108_322)"/>
<path d="M45.636 54.7088C45.636 54.132 46.0627 53.6644 46.5906 53.6644C47.116 53.6634 47.5417 54.1325 47.5417 54.7094C47.5417 55.2868 47.116 55.7549 46.5906 55.7549C46.0622 55.7549 45.636 55.2857 45.636 54.7088Z" fill="url(#paint26_linear_108_322)"/>
<path d="M43.88 40.2326C43.879 41.1401 43.9648 42.1883 44.0186 43.4113C45.3535 41.8983 46.0545 40.0119 46.0506 38.2943C46.0506 37.4393 45.8824 36.6292 45.54 35.9078C44.1301 37.2969 43.9066 38.4452 43.88 40.2326ZM42.7542 44.9552C42.7404 43.1364 42.5746 41.6299 42.5741 40.2326C42.5455 38.1492 43.0467 36.2011 45.0368 34.4943C45.1286 34.4148 45.2174 34.3412 45.3022 34.2703L45.8261 33.8341L46.2208 34.4121C46.9928 35.5447 47.3589 36.9051 47.3574 38.2943C47.3535 40.8095 46.1848 43.4324 44.0738 45.2907C43.9742 45.3795 43.881 45.4531 43.806 45.5164L42.7651 46.3958L42.7542 44.9552Z" fill="url(#paint27_linear_108_322)"/>
<path d="M50.8034 35.0047C51.202 35.003 51.5838 34.7812 51.794 34.3823C51.899 34.1794 51.9474 33.9651 51.9474 33.7519C51.9474 33.3141 51.7436 32.8942 51.3771 32.6637C51.1941 32.5468 51.0007 32.4948 50.8073 32.4932C50.4092 32.4948 50.0254 32.7183 49.8108 33.128C49.7067 33.3217 49.6598 33.5317 49.6598 33.7476C49.6598 34.1816 49.8641 34.6026 50.2326 34.8364C50.4136 34.9511 50.6085 35.0047 50.8034 35.0047ZM49.5809 36.0777L49.9065 35.4565L49.5804 36.0777C48.7955 35.5799 48.3516 34.6751 48.353 33.7476C48.353 33.2935 48.4581 32.8244 48.6821 32.4061C49.1354 31.544 49.9613 31.0602 50.8073 31.0619C51.2212 31.0602 51.6445 31.1771 52.0293 31.4212C52.8147 31.9196 53.2557 32.8244 53.2542 33.7519C53.2542 34.2075 53.1476 34.6718 52.9266 35.095C52.4723 35.9554 51.647 36.4371 50.8034 36.4365H50.7955C50.3821 36.4365 49.9608 36.318 49.5809 36.0777Z" fill="url(#paint28_linear_108_322)"/>
<path d="M45.2289 34.5307C46.3286 32.4527 47.5362 31.5262 47.5811 28.2474V28.1213C47.5673 25.6597 46.883 24.559 46.0824 23.2039C45.2773 21.8733 44.3553 20.2899 44.3705 17.4992C44.3705 17.4581 44.3691 17.4007 44.375 17.3266L45.6769 17.4245C45.6754 17.4315 45.6754 17.4581 45.6754 17.4992C45.6892 19.9614 46.3734 21.0621 47.1736 22.4177C47.9792 23.7473 48.9007 25.3312 48.8859 28.1213V28.2528C48.8672 32.0062 47.2565 33.5122 46.3606 35.2434L45.2289 34.5307ZM46.3601 35.2439L46.3606 35.2434L46.3616 35.2439H46.3601Z" fill="url(#paint29_linear_108_322)"/>
<path d="M45.7794 16.9602C47.3506 16.8828 48.0575 16.3849 48.8829 15.4433C49.5469 14.6657 50.2158 13.538 51.2094 12.1992C48.3851 12.6029 46.2238 14.5813 45.7794 16.9602ZM45.3669 18.4018C45.2407 18.4018 45.1247 18.3974 45.0132 18.3915L44.3635 18.3574L44.3921 17.6442C44.5766 13.6581 48.1049 10.6894 52.2685 10.6921C52.3085 10.6921 52.3455 10.6921 52.3707 10.6937C52.495 10.6937 52.6075 10.6997 52.7081 10.704L54.1284 10.7592L53.1654 11.9053C51.6647 13.6889 50.8483 15.2188 49.8379 16.4196C48.8395 17.6323 47.5164 18.4267 45.4671 18.4018C45.4444 18.4018 45.4207 18.4023 45.399 18.4023C45.3877 18.4023 45.3773 18.4023 45.3669 18.4018Z" fill="url(#paint30_linear_108_322)"/>
<path d="M48.8454 27.5513C51.9544 26.9111 54.1482 24.4218 54.274 21.8076C51.1641 22.4494 48.9698 24.9403 48.8454 27.5513ZM47.5653 28.4528C47.5421 28.2353 47.5342 28.0237 47.5327 27.8181C47.5524 24.0825 50.5637 20.9114 54.4935 20.3167C54.6208 20.2961 54.7357 20.2842 54.8413 20.2723L55.495 20.1982L55.5571 20.9174C55.5759 21.123 55.5847 21.3303 55.5847 21.5392C55.566 25.2763 52.5572 28.4469 48.621 29.0421C48.5036 29.0595 48.3891 29.0746 48.2762 29.0865L47.6348 29.1531L47.5653 28.4528Z" fill="url(#paint31_linear_108_322)"/>
<path d="M55.7786 35.2854C55.9902 35.2837 56.1929 35.1658 56.303 34.9585C56.3602 34.8476 56.3853 34.7339 56.3853 34.6225C56.3844 34.3903 56.2778 34.1701 56.0844 34.0467C55.9853 33.985 55.8861 33.9579 55.7825 33.9579C55.5719 33.9579 55.3696 34.0764 55.2537 34.2989C55.2004 34.3973 55.1747 34.5061 55.1747 34.6208C55.1762 34.8497 55.2828 35.0727 55.4776 35.1977V35.1972C55.5728 35.2572 55.6755 35.2854 55.7786 35.2854ZM55.7786 36.7178C55.453 36.7178 55.1229 36.6269 54.8255 36.4391L55.152 35.8184L54.824 36.4391C54.2132 36.0495 53.8679 35.3433 53.8689 34.6208C53.8689 34.2675 53.9513 33.8989 54.1249 33.5764C54.4786 32.9027 55.1239 32.5239 55.7825 32.525C56.1046 32.525 56.4371 32.6153 56.7361 32.8053C57.3508 33.1944 57.6931 33.9022 57.6917 34.6225C57.6917 34.9796 57.6068 35.3395 57.4361 35.6701C57.0829 36.3411 56.4391 36.7178 55.7825 36.7178H55.7786Z" fill="url(#paint32_linear_108_322)"/>
<path d="M54.1372 30.0487C53.6818 29.7603 53.5264 29.1207 53.7899 28.6196C54.0518 28.1201 54.6354 27.9502 55.0912 28.2386C55.5466 28.527 55.703 29.1661 55.4405 29.6656C55.1766 30.1667 54.5935 30.3372 54.1372 30.0487Z" fill="url(#paint33_linear_108_322)"/>
<path d="M41.1372 23.9957C41.9556 24.6353 43.0715 25.1803 44.4099 25.9363C43.6196 22.8994 41.4657 20.8306 39.2443 20.7375C39.5645 22.4166 40.1688 23.2246 41.1372 23.9957ZM44.9965 27.9093C43.1973 26.7853 41.6527 26.1414 40.3849 25.1668C39.1082 24.2008 38.1777 22.7857 37.8793 20.514C37.8595 20.3782 37.8477 20.2575 37.8349 20.1509L37.7471 19.4328L38.4012 19.3446C38.6217 19.3153 38.8418 19.3018 39.0583 19.3018C42.4312 19.3224 45.3235 22.5568 45.92 26.8227C45.9412 26.9655 45.954 27.09 45.9658 27.1901L46.142 28.623L44.9965 27.9093Z" fill="url(#paint34_linear_108_322)"/>
<path d="M39.601 13.5715C39.234 13.8014 39.0312 14.2225 39.0297 14.6592C39.0297 14.8729 39.0781 15.0856 39.1841 15.2863C39.3948 15.6879 39.7776 15.9125 40.1757 15.9135C40.3706 15.9135 40.563 15.861 40.745 15.7474C41.1135 15.5125 41.3173 15.0905 41.3182 14.6559C41.3182 14.4405 41.2704 14.23 41.1678 14.032C40.9527 13.6245 40.5689 13.4032 40.1718 13.4015C39.9784 13.4015 39.786 13.4546 39.601 13.5715ZM38.0524 16.0028C37.8309 15.5818 37.7229 15.1153 37.7229 14.6592C37.7229 13.7322 38.1629 12.8247 38.9488 12.3301C39.3321 12.0866 39.7559 11.9686 40.1718 11.9686C41.0168 11.967 41.8417 12.4524 42.297 13.3144C42.52 13.7365 42.6251 14.2013 42.6251 14.6559C42.626 15.5829 42.183 16.4866 41.4011 16.9855L41.0736 16.3659L41.4001 16.9872C41.0158 17.2291 40.5916 17.3459 40.1757 17.3459C39.3306 17.347 38.5048 16.8632 38.0524 16.0028Z" fill="url(#paint35_linear_108_322)"/>
<path d="M34.2115 14.9659C32.7084 13.9984 31.6463 13.8317 30.5782 13.8241C29.8634 13.8241 29.1382 13.9156 28.3262 13.9172C27.1106 13.9231 25.7066 13.6753 24.0259 12.5779L24.6899 11.3446C26.1935 12.3105 27.2567 12.4777 28.3262 12.4853C29.0415 12.4853 29.7647 12.3939 30.5782 12.3917C31.7928 12.3857 33.1948 12.6336 34.8775 13.731C37.8291 15.6267 38.2119 17.9098 39.1319 19.6274H39.1334L38.0027 20.3455C36.912 18.2642 36.7842 16.6521 34.2115 14.9659Z" fill="url(#paint36_linear_108_322)"/>
<path d="M22.7756 6.63498C22.778 8.42239 23.3557 10.0052 24.4099 11.0361C24.8367 10.1465 24.9852 9.45056 24.9861 8.79253C25.0157 7.41531 24.2102 5.92987 23.3651 3.49363C22.967 4.54183 22.7756 5.61763 22.7756 6.63498ZM24.2526 12.6964C22.412 11.4041 21.4658 9.09232 21.4702 6.63498C21.4702 4.98124 21.89 3.24308 22.7568 1.63804C22.8185 1.52332 22.8787 1.42158 22.931 1.32851L23.6823 -4.76837e-06L24.109 1.49193C25.0064 4.71175 26.2579 6.44396 26.293 8.79253C26.2944 9.83856 25.9989 10.9301 25.3379 12.1514C25.2762 12.2678 25.2141 12.3771 25.1539 12.4799L24.8012 13.0806L24.2526 12.6964Z" fill="url(#paint37_linear_108_322)"/>
<path d="M32.0331 8.21824C32.0356 10.458 32.8802 12.3953 34.3014 13.4187C34.6048 12.4679 34.7489 11.5079 34.7489 10.5906C34.7469 8.35191 33.8999 6.41352 32.4816 5.39238C32.1767 6.34263 32.0317 7.30154 32.0331 8.21824ZM34.3671 15.0854C32.0183 13.9268 30.7229 11.1881 30.7268 8.21824C30.7268 6.9774 30.9493 5.68731 31.415 4.43564C31.4614 4.30738 31.5087 4.19104 31.5536 4.08335L31.8205 3.43344L32.4155 3.72511C34.7627 4.88262 36.0592 7.62136 36.0552 10.5906C36.0552 11.8304 35.8322 13.1216 35.3655 14.3792C35.3211 14.4988 35.2762 14.6135 35.2289 14.7271L34.9581 15.376L34.3671 15.0854Z" fill="url(#paint38_linear_108_322)"/>
<path d="M43.0475 9.79125C42.8536 9.91355 42.746 10.137 42.7446 10.3687C42.746 10.478 42.7697 10.5905 42.8294 10.7009C42.9384 10.9103 43.1412 11.0305 43.3528 11.0305C43.4584 11.0305 43.559 11.0023 43.6572 10.9417C43.8486 10.8173 43.9547 10.5959 43.9567 10.367C43.9547 10.2523 43.93 10.1414 43.8753 10.0364C43.7603 9.82047 43.5576 9.70251 43.3469 9.70088C43.2463 9.70251 43.1471 9.72956 43.0475 9.79125ZM43.3528 12.4629C42.6933 12.464 42.0485 12.0879 41.6967 11.4158C41.5246 11.0895 41.4382 10.7258 41.4397 10.3687C41.4382 9.64514 41.7816 8.93787 42.3948 8.55095C42.6933 8.36155 43.0248 8.26901 43.3469 8.27009C44.007 8.26901 44.6498 8.64673 45.0064 9.31883C45.1796 9.64785 45.2615 10.0115 45.2615 10.367C45.263 11.0895 44.9186 11.794 44.3094 12.182L43.9823 11.563L44.3059 12.1853C44.0099 12.3709 43.6814 12.4629 43.3607 12.4629H43.3528Z" fill="url(#paint39_linear_108_322)"/>
<path d="M38.9186 9.64239C38.4633 9.93136 37.8807 9.75873 37.6167 9.25817C37.3533 8.75924 37.5107 8.12014 37.9665 7.83171C38.4223 7.54274 39.0049 7.71374 39.2674 8.21322C39.5313 8.71378 39.3744 9.35342 38.9186 9.64239Z" fill="url(#paint40_linear_108_322)"/>
<path d="M78.07 22.0703L72.8787 28.519C72.7259 28.7095 72.6287 28.6676 72.6287 28.4162V22.3827C72.6287 21.7123 73.0107 21.5447 73.5836 21.5447V21.1257H69V21.5447C69.573 21.5447 69.9549 21.7123 69.9549 22.3827V34.5335C69.9549 35.2039 69.573 35.3715 69 35.3715V35.7905H73.5836V35.3715C73.0107 35.3715 72.6287 35.2039 72.6287 34.5335V30.0922C72.6287 29.8408 72.7259 29.5475 72.8787 29.357L73.028 29.1932C73.1808 29.0028 73.3718 29.0028 73.5072 29.2123L77.2887 34.7849C77.6498 35.3296 77.4415 35.3715 76.6393 35.3715V35.7905H81.5112V35.3715C81.1084 35.3715 80.518 35.3296 80.1534 34.7849L75.0351 27.3078C74.9031 27.0983 74.9031 26.8469 75.0559 26.6564L78.7402 22.0703C79.143 21.5675 79.7715 21.5447 80.1743 21.5447V21.1257H77.5005V21.5447C78.2992 21.5447 78.4728 21.5675 78.07 22.0703ZM84.3551 35.7905H88.9387V35.3715C88.3657 35.3715 87.9838 35.2039 87.9838 34.5335V22.3827C87.9838 21.7123 88.3657 21.5447 88.9387 21.5447V21.1257H84.3551V21.5447C84.928 21.5447 85.31 21.7123 85.31 22.3827V34.5335C85.31 35.2039 84.928 35.3715 84.3551 35.3715V35.7905ZM91.5951 35.3715V35.7905H94.0744V35.3715C93.5049 35.3715 93.1195 35.2039 93.1195 34.5335V23.7425C93.1195 23.4911 93.2167 23.4492 93.3487 23.6625L101.523 35.7905H102.478V22.3827C102.478 21.7123 102.863 21.5447 103.433 21.5447V21.1257H100.953V21.5447C101.523 21.5447 101.908 21.7123 101.908 22.3827V31.2425C101.908 31.4939 101.811 31.5358 101.676 31.3301L94.8383 21.1257H91.5951V21.5447C92.1646 21.5447 92.55 21.7123 92.55 22.3827V34.5335C92.55 35.2039 92.1646 35.3715 91.5951 35.3715ZM112.714 35.9162C113.805 35.9162 114.645 35.4972 115.409 34.7849C115.579 34.5945 115.808 34.6173 115.961 34.7849L116.572 35.4972C116.725 35.6648 116.992 35.7905 117.222 35.7905H117.986V29.5056C117.986 28.8352 118.371 28.6676 118.94 28.6676V28.2486H113.69V28.6676C114.662 28.6676 115.312 28.8352 115.312 29.5056V33.6536C115.312 33.7603 115.333 33.8631 115.371 33.966C114.662 34.7849 113.822 35.2877 112.714 35.2877C110.176 35.2877 108.457 32.6671 108.457 28.4581C108.457 24.2491 110.176 21.6285 112.905 21.6285C114.569 21.6285 116.593 22.676 115.906 23.2816C115.656 23.4911 115.485 23.8263 115.485 24.1844C115.485 24.8319 115.923 25.3156 116.517 25.3156C117.069 25.3156 117.586 24.771 117.51 23.9558C117.319 22.4893 115.201 21 112.905 21C108.992 21 105.707 23.8911 105.707 28.4581C105.707 33.0251 108.992 35.9162 112.714 35.9162ZM123.028 36C123.677 36 124.271 35.4134 124.271 34.6402C124.271 33.8631 123.677 33.2765 123.028 33.2765C122.323 33.2765 121.788 33.8631 121.788 34.6402C121.788 35.4134 122.323 36 123.028 36ZM134.125 35.9162C136.014 35.9162 137.657 34.9716 138.956 33.2537L138.518 32.7928C137.275 34.4916 135.785 35.2877 134.125 35.2877C131.584 35.2877 129.865 32.6671 129.865 28.4581C129.865 24.2491 131.584 21.6285 134.316 21.6285C135.976 21.6285 138.001 22.676 137.313 23.2816C137.067 23.4911 136.893 23.8263 136.893 24.1844C136.893 24.8319 137.334 25.3156 137.924 25.3156C138.48 25.3156 138.994 24.771 138.917 23.9558C138.726 22.4893 136.608 21 134.316 21C130.4 21 127.115 23.8911 127.115 28.4581C127.115 33.0251 130.399 35.9162 134.125 35.9162ZM148.81 35.9162C152.536 35.9162 155.8 33.0251 155.8 28.4581C155.8 23.8911 152.536 21 148.81 21C145.088 21 141.803 23.8911 141.803 28.4581C141.803 33.0251 145.088 35.9162 148.81 35.9162ZM149.366 35.2877C146.824 35.2877 144.897 32.6671 144.553 28.4581C144.209 24.2491 145.716 21.6285 148.258 21.6285C150.797 21.6285 152.706 24.2491 153.05 28.4581C153.394 32.6671 151.904 35.2877 149.366 35.2877ZM159.967 23.2626L164.471 33.6955H165.811L170.145 22.4893C170.239 22.257 170.298 22.276 170.298 22.5312V34.5335C170.298 35.2039 169.916 35.3715 169.343 35.3715V35.7905H173.926V35.3715C173.353 35.3715 172.971 35.2039 172.971 34.5335V22.3827C172.971 21.7123 173.353 21.5447 173.926 21.5447V21.1257H170.107L166.363 30.8045C166.266 31.0368 166.155 31.0368 166.037 30.8045L161.894 21.1257H158.266V21.5447C158.839 21.5447 159.221 21.7123 159.221 22.3827V34.5335C159.221 35.2039 158.839 35.3715 158.266 35.3715V35.7905H160.749V35.3715C160.176 35.3715 159.794 35.2039 159.794 34.5335V23.3045C159.794 23.0531 159.849 23.034 159.967 23.2626Z" fill="#A0AAB2"/>
<path d="M32.6568 29.6714L28.5533 34.7712C28.4314 34.9176 28.356 34.8858 28.356 34.6884V29.9197C28.356 29.3913 28.6578 29.2576 29.1105 29.2576V28.9265H25.4888V29.2576C25.9415 29.2576 26.2433 29.3913 26.2433 29.9197V39.5207C26.2433 40.0492 25.9415 40.1829 25.4888 40.1829V40.514H29.1105V40.1829C28.6578 40.1829 28.356 40.0492 28.356 39.5207V36.0127C28.356 35.8121 28.4314 35.5797 28.5533 35.4333L28.6723 35.2996C28.7942 35.15 28.9451 35.15 29.0496 35.3155L32.0387 39.7181C32.326 40.151 32.1577 40.1829 31.525 40.1829V40.514H35.3731V40.1829C35.0568 40.1829 34.5896 40.151 34.3023 39.7181L30.2568 33.8098C30.1524 33.6443 30.1524 33.4469 30.2713 33.2973L33.185 29.6714C33.5013 29.2735 34.0005 29.2576 34.3168 29.2576V28.9265H32.2041V29.2576C32.8367 29.2576 32.9731 29.2735 32.6568 29.6714Z" fill="#B8860B"/>
<defs>
<linearGradient id="paint0_linear_108_322" x1="28.0614" y1="20.8894" x2="28.0614" y2="15.1354" gradientUnits="userSpaceOnUse">
<stop offset="1" stop-color="#B8913C"/>
</linearGradient>
<linearGradient id="paint1_linear_108_322" x1="19.787" y1="17.8977" x2="19.787" y2="12.522" gradientUnits="userSpaceOnUse">
<stop offset="1" stop-color="#B8913C"/>
</linearGradient>
<linearGradient id="paint2_linear_108_322" x1="16.3091" y1="29.5127" x2="16.3091" y2="18.5344" gradientUnits="userSpaceOnUse">
<stop offset="1" stop-color="#B8913C"/>
</linearGradient>
<linearGradient id="paint3_linear_108_322" x1="5.43001" y1="30.054" x2="5.43001" y2="23.5559" gradientUnits="userSpaceOnUse">
<stop offset="1" stop-color="#B8913C"/>
</linearGradient>
<linearGradient id="paint4_linear_108_322" x1="12.2469" y1="22.1311" x2="12.2469" y2="15.9242" gradientUnits="userSpaceOnUse">
<stop offset="1" stop-color="#B8913C"/>
</linearGradient>
<linearGradient id="paint5_linear_108_322" x1="14.2463" y1="14.9414" x2="14.2463" y2="12.8504" gradientUnits="userSpaceOnUse">
<stop offset="1" stop-color="#B8913C"/>
</linearGradient>
<linearGradient id="paint6_linear_108_322" x1="15.8683" y1="34.77" x2="15.8683" y2="22.2214" gradientUnits="userSpaceOnUse">
<stop offset="1" stop-color="#B8913C"/>
</linearGradient>
<linearGradient id="paint7_linear_108_322" x1="10.0285" y1="37.5422" x2="10.0285" y2="32.1659" gradientUnits="userSpaceOnUse">
<stop offset="1" stop-color="#B8913C"/>
</linearGradient>
<linearGradient id="paint8_linear_108_322" x1="14.2036" y1="51.2297" x2="14.2036" y2="33.36" gradientUnits="userSpaceOnUse">
<stop offset="1" stop-color="#B8913C"/>
</linearGradient>
<linearGradient id="paint9_linear_108_322" x1="11.5974" y1="57.9111" x2="11.5974" y2="50.1992" gradientUnits="userSpaceOnUse">
<stop offset="1" stop-color="#B8913C"/>
</linearGradient>
<linearGradient id="paint10_linear_108_322" x1="9.27309" y1="48.4041" x2="9.27309" y2="39.4481" gradientUnits="userSpaceOnUse">
<stop offset="1" stop-color="#B8913C"/>
</linearGradient>
<linearGradient id="paint11_linear_108_322" x1="5.0525" y1="36.0771" x2="5.0525" y2="31.8849" gradientUnits="userSpaceOnUse">
<stop offset="1" stop-color="#B8913C"/>
</linearGradient>
<linearGradient id="paint12_linear_108_322" x1="6.22071" y1="40.5076" x2="6.22071" y2="38.4165" gradientUnits="userSpaceOnUse">
<stop offset="1" stop-color="#B8913C"/>
</linearGradient>
<linearGradient id="paint13_linear_108_322" x1="18.889" y1="49.302" x2="18.889" y2="39.984" gradientUnits="userSpaceOnUse">
<stop offset="1" stop-color="#B8913C"/>
</linearGradient>
<linearGradient id="paint14_linear_108_322" x1="20.6588" y1="56.635" x2="20.6588" y2="51.2571" gradientUnits="userSpaceOnUse">
<stop offset="1" stop-color="#B8913C"/>
</linearGradient>
<linearGradient id="paint15_linear_108_322" x1="29.2559" y1="57.2603" x2="29.2559" y2="48.2588" gradientUnits="userSpaceOnUse">
<stop offset="1" stop-color="#B8913C"/>
</linearGradient>
<linearGradient id="paint16_linear_108_322" x1="36.9524" y1="68.5864" x2="36.9524" y2="55.5226" gradientUnits="userSpaceOnUse">
<stop offset="1" stop-color="#B8913C"/>
</linearGradient>
<linearGradient id="paint17_linear_108_322" x1="27.443" y1="65.1743" x2="27.443" y2="53.2285" gradientUnits="userSpaceOnUse">
<stop offset="1" stop-color="#B8913C"/>
</linearGradient>
<linearGradient id="paint18_linear_108_322" x1="17.4824" y1="60.3323" x2="17.4824" y2="56.1389" gradientUnits="userSpaceOnUse">
<stop offset="1" stop-color="#B8913C"/>
</linearGradient>
<linearGradient id="paint19_linear_108_322" x1="22.3923" y1="60.9146" x2="22.3923" y2="58.8234" gradientUnits="userSpaceOnUse">
<stop offset="1" stop-color="#B8913C"/>
</linearGradient>
<linearGradient id="paint20_linear_108_322" x1="32.767" y1="53.4663" x2="32.767" y2="47.7134" gradientUnits="userSpaceOnUse">
<stop offset="1" stop-color="#B8913C"/>
</linearGradient>
<linearGradient id="paint21_linear_108_322" x1="41.0473" y1="56.0823" x2="41.0473" y2="50.7055" gradientUnits="userSpaceOnUse">
<stop offset="1" stop-color="#B8913C"/>
</linearGradient>
<linearGradient id="paint22_linear_108_322" x1="44.4928" y1="50.0657" x2="44.4928" y2="39.0918" gradientUnits="userSpaceOnUse">
<stop offset="1" stop-color="#B8913C"/>
</linearGradient>
<linearGradient id="paint23_linear_108_322" x1="55.4169" y1="45.054" x2="55.4169" y2="38.5478" gradientUnits="userSpaceOnUse">
<stop offset="1" stop-color="#B8913C"/>
</linearGradient>
<linearGradient id="paint24_linear_108_322" x1="48.588" y1="52.6775" x2="48.588" y2="46.4711" gradientUnits="userSpaceOnUse">
<stop offset="1" stop-color="#B8913C"/>
</linearGradient>
<linearGradient id="paint25_linear_108_322" x1="42.8469" y1="60.6521" x2="42.8469" y2="56.4604" gradientUnits="userSpaceOnUse">
<stop offset="1" stop-color="#B8913C"/>
</linearGradient>
<linearGradient id="paint26_linear_108_322" x1="46.5888" y1="55.7549" x2="46.5888" y2="53.6644" gradientUnits="userSpaceOnUse">
<stop offset="1" stop-color="#B8913C"/>
</linearGradient>
<linearGradient id="paint27_linear_108_322" x1="44.9652" y1="46.3958" x2="44.9652" y2="33.8341" gradientUnits="userSpaceOnUse">
<stop offset="1" stop-color="#B8913C"/>
</linearGradient>
<linearGradient id="paint28_linear_108_322" x1="50.8036" y1="36.4365" x2="50.8036" y2="31.0618" gradientUnits="userSpaceOnUse">
<stop offset="1" stop-color="#B8913C"/>
</linearGradient>
<linearGradient id="paint29_linear_108_322" x1="46.6282" y1="35.2439" x2="46.6282" y2="17.3266" gradientUnits="userSpaceOnUse">
<stop offset="1" stop-color="#B8913C"/>
</linearGradient>
<linearGradient id="paint30_linear_108_322" x1="49.246" y1="18.4023" x2="49.246" y2="10.6921" gradientUnits="userSpaceOnUse">
<stop offset="1" stop-color="#B8913C"/>
</linearGradient>
<linearGradient id="paint31_linear_108_322" x1="51.5587" y1="29.1531" x2="51.5587" y2="20.1982" gradientUnits="userSpaceOnUse">
<stop offset="1" stop-color="#B8913C"/>
</linearGradient>
<linearGradient id="paint32_linear_108_322" x1="55.7803" y1="36.7178" x2="55.7803" y2="32.525" gradientUnits="userSpaceOnUse">
<stop offset="1" stop-color="#B8913C"/>
</linearGradient>
<linearGradient id="paint33_linear_108_322" x1="54.6147" y1="30.189" x2="54.6147" y2="28.0982" gradientUnits="userSpaceOnUse">
<stop offset="1" stop-color="#B8913C"/>
</linearGradient>
<linearGradient id="paint34_linear_108_322" x1="41.9445" y1="28.623" x2="41.9445" y2="19.3018" gradientUnits="userSpaceOnUse">
<stop offset="1" stop-color="#B8913C"/>
</linearGradient>
<linearGradient id="paint35_linear_108_322" x1="40.174" y1="17.3459" x2="40.174" y2="11.9686" gradientUnits="userSpaceOnUse">
<stop offset="1" stop-color="#B8913C"/>
</linearGradient>
<linearGradient id="paint36_linear_108_322" x1="31.5797" y1="20.3455" x2="31.5797" y2="11.3446" gradientUnits="userSpaceOnUse">
<stop offset="1" stop-color="#B8913C"/>
</linearGradient>
<linearGradient id="paint37_linear_108_322" x1="23.8816" y1="13.0806" x2="23.8816" y2="-4.76837e-06" gradientUnits="userSpaceOnUse">
<stop offset="1" stop-color="#B8913C"/>
</linearGradient>
<linearGradient id="paint38_linear_108_322" x1="33.391" y1="15.376" x2="33.391" y2="3.43343" gradientUnits="userSpaceOnUse">
<stop offset="1" stop-color="#B8913C"/>
</linearGradient>
<linearGradient id="paint39_linear_108_322" x1="43.3506" y1="12.4629" x2="43.3506" y2="8.27008" gradientUnits="userSpaceOnUse">
<stop offset="1" stop-color="#B8913C"/>
</linearGradient>
<linearGradient id="paint40_linear_108_322" x1="38.4423" y1="9.78247" x2="38.4423" y2="7.69118" gradientUnits="userSpaceOnUse">
<stop offset="1" stop-color="#B8913C"/>
</linearGradient>
</defs>
</svg>
